<?xml version="1.0" encoding="UTF-8" standalone="no"?>
<!-- Created with Inkscape (http://www.inkscape.org/) -->

<svg
   xmlns:dc="http://purl.org/dc/elements/1.1/"
   xmlns:cc="http://creativecommons.org/ns#"
   xmlns:rdf="http://www.w3.org/1999/02/22-rdf-syntax-ns#"
   xmlns:svg="http://www.w3.org/2000/svg"
   xmlns="http://www.w3.org/2000/svg"
   xmlns:sodipodi="http://sodipodi.sourceforge.net/DTD/sodipodi-0.dtd"
   xmlns:inkscape="http://www.inkscape.org/namespaces/inkscape"
   width="181mm"
   height="180mm"
   viewBox="0 0 181 180"
   version="1.1"
   id="svg838"
   inkscape:version="0.92.4 (5da689c313, 2019-01-14)"
   sodipodi:docname="1.svg">
  <defs
     id="defs832" />
  <sodipodi:namedview
     id="base"
     pagecolor="#ffffff"
     bordercolor="#666666"
     borderopacity="1.0"
     inkscape:pageopacity="0.0"
     inkscape:pageshadow="2"
     inkscape:zoom="0.35"
     inkscape:cx="650"
     inkscape:cy="885.71429"
     inkscape:document-units="mm"
     inkscape:current-layer="g1447"
     showgrid="false"
     inkscape:window-width="1920"
     inkscape:window-height="1017"
     inkscape:window-x="-8"
     inkscape:window-y="-8"
     inkscape:window-maximized="1" />
  <metadata
     id="metadata835">
    <rdf:RDF>
      <cc:Work
         rdf:about="">
        <dc:format>image/svg+xml</dc:format>
        <dc:type
           rdf:resource="http://purl.org/dc/dcmitype/StillImage" />
        <dc:title></dc:title>
      </cc:Work>
    </rdf:RDF>
  </metadata>
  <g
     inkscape:label="Capa 1"
     inkscape:groupmode="layer"
     id="layer1"
     transform="translate(0,-117)">
    <g
       id="g1447"
       transform="matrix(0.26458333,0,0,0.26458333,17.916034,32.189866)">
      <g
         id="g2093"
         transform="translate(-1242.8572,-102.85714)">
        <path
           style="fill:#668000;fill-opacity:1"
           inkscape:connector-curvature="0"
           d="m 616,658 a 336.852,336.852 0 0 1 -27.22,133.1 l -1.12,2.58 A 338.559,338.559 0 0 1 219.35,990.93 q -3.045,-0.54 -6.08,-1.12 a 334.98111,334.98111 0 0 1 -61.14,-18.03 q -4.815,-1.935 -9.56,-4.01 c -2.16,-0.94 -4.32,-1.91 -6.46,-2.91 A 338.41424,338.41424 0 0 1 -60.000001,658 C -60.000001,471.33 91.33,320 278,320 c 186.67,0 338,151.33 338,338 z"
           id="path1398" />
        <g
           transform="translate(-60.000001,320)"
           style="fill:#e3dedb"
           id="g1455">
          <path
             id="path1400"
             transform="translate(-262,-112)"
             d="m 541.35,782.93 q -3.045,-0.54 -6.08,-1.12 C 533.95,743.5 529.42,664.87 513.96995,582.52 505.52,537.45 493.79,491.25 477.52,449.95 a 412.60387,412.60387 0 0 0 -19.07,-41.84 c -16.44,-31.05 -36.38,-57.19 -60.56,-74.9 l 3.56,-4.86 q 30.165,22.11 54.22,62.08 7.215,11.97 13.86005,25.54 7.125,14.52 13.59,30.83 4.125,10.38 7.97,21.48 16.74,48.195 28.46,109.98 2.59506,13.65 4.94,27.97 C 536.6,680.2 540.25,748.59 541.35,782.93 Z"
             inkscape:connector-curvature="0"
             style="opacity:0.2;fill:#e3dedb" />
          <path
             id="path1402"
             transform="translate(-262,-112)"
             d="m 464.57,759.77 c -2.16,-0.94 -4.32,-1.91 -6.46,-2.91 -2.09,-22.7 -5.93,-50.86 -12.95,-77.59 a 254.55666,254.55666 0 0 0 -11.81,-35.2 c -8.01,-18.75 -18.38,-34.69 -31.79,-44.52 l 3.56,-4.85 c 14.04,10.28 24.87,26.53 33.24,45.54 9.43,21.42 15.72,46.35 19.91,70.17 3.11,17.69 5.07,34.78 6.3,49.36 z"
             inkscape:connector-curvature="0"
             style="opacity:0.2;fill:#e3dedb" />
          <circle
             id="circle1404"
             r="30.08857"
             cy="190.98167"
             cx="102.26174"
             style="opacity:0.2;fill:#e3dedb" />
          <circle
             id="circle1406"
             r="30.08857"
             cy="449.99084"
             cx="111.9514"
             style="opacity:0.2;fill:#e3dedb" />
          <path
             id="path1410"
             transform="translate(-262,-112)"
             d="m 383.71766,438.97122 c 34.33494,12.555 68.83676,4.498 68.83676,4.498 0,0 -21.16612,-28.41279 -55.50106,-40.96784 -34.33494,-12.55505 -68.83675,-4.498 -68.83675,-4.498 0,0 21.16611,28.41279 55.50105,40.96784 z"
             inkscape:connector-curvature="0"
             style="opacity:0.2;fill:#e3dedb" />
          <path
             id="path1412"
             transform="translate(-262,-112)"
             d="m 377.89534,668.333 c 24.066,8.80008 48.28314,3.0594 48.28314,3.0594 0,0 -14.80161,-20.0084 -38.86762,-28.8085 -24.06601,-8.8001 -48.28314,-3.0594 -48.28314,-3.0594 0,0 14.80161,20.00842 38.86762,28.8085 z"
             inkscape:connector-curvature="0"
             style="opacity:0.2;fill:#e3dedb" />
        </g>
        <g
           transform="translate(-60.000001,320)"
           style="fill:#faceaf;fill-opacity:1"
           id="g1463">
          <circle
             id="circle1414"
             r="131.77014"
             cy="281.0788"
             cx="337.30609"
             style="fill:#faceaf;fill-opacity:1" />
          <path
             id="path1416"
             transform="translate(-262,-112)"
             d="m 547.83337,493.96531 c 0,0 16.47127,78.23852 16.47127,86.47415 0,8.23563 78.23852,45.296 78.23852,45.296 L 712.546,613.382 737.253,539.26129 c 0,0 -41.17817,-61.76725 -41.17817,-86.47415 z"
             inkscape:connector-curvature="0"
             style="fill:#faceaf;fill-opacity:1" />
        </g>
        <path
           style="fill:#c87137;fill-opacity:1"
           inkscape:connector-curvature="0"
           d="m 163.03538,494.916 c 0,0 41.83653,-90.64581 122.02321,-69.72755 80.18668,20.91826 125.50958,52.29566 128.996,83.67306 3.48642,31.3774 -1.74319,78.44348 -1.74319,78.44348 0,0 -8.716,-64.498 -64.498,-50.55247 -55.782,13.94553 -142.94147,3.48638 -142.94147,3.48638 L 190.9264,665.74849 c 0,0 -15.6887,-22.66145 -33.12058,-8.71594 C 140.37394,670.97806 107.25335,522.807 163.03538,494.916 Z"
           id="path1420" />
        <g
           transform="translate(-60.000001,320)"
           style="fill:#aca793;fill-opacity:1"
           id="g1459">
          <path
             id="path1418"
             transform="translate(-262,-112)"
             d="m 910.78,583.1 -1.12,2.58 A 338.559,338.559 0 0 1 541.35,782.93 q -3.045,-0.54 -6.08,-1.12 a 334.98111,334.98111 0 0 1 -61.14,-18.03 q -4.815,-1.935 -9.56,-4.01 c -2.16,-0.94 -4.32,-1.91 -6.46,-2.91 a 337.59273,337.59273 0 0 1 -55.25,-32.28 l -15.62,-45.31 8.78,-6.69995 18.06,-13.79 19.27,-14.71 5.01,-3.83 75.61,-57.72 5.58,-4.26 39.3,-30 0.01,-0.01 c 0,0 42.5,69.25 104.27,48.66 61.77,-20.59 60.42,-79.63 60.42,-79.63 z"
             inkscape:connector-curvature="0"
             style="fill:#aca793;fill-opacity:1" />
          <path
             id="path1422"
             transform="translate(-262,-112)"
             d="m 474.13,763.78 q -4.815,-1.935 -9.56,-4.01 c -2.16,-0.94 -4.32,-1.91 -6.46,-2.91 a 338.835,338.835 0 0 1 -87.59,-58.7 c 9.19,-12.52 16.72,-18.89 16.72,-18.89 h 61.77 l 9.26,31.14 z"
             inkscape:connector-curvature="0"
             style="fill:#aca793;fill-opacity:1" />
        </g>
      </g>
      <path
         id="path1424"
         d="m 534.67,784.32 52.99,9.36 a 337.94434,337.94434 0 0 1 -56.76,88.57 z"
         inkscape:connector-curvature="0"
         style="fill:#000000;fill-opacity:0" />
      <g
         id="g1505"
         transform="matrix(0.99998741,0,0,0.99998741,-331.42432,-865.70998)">
        <path
           id="path1469"
           d="m 938,450 a 336.85,336.85 0 0 1 -27.22,133.1 l -1.12,2.58 A 338.56,338.56 0 0 1 541.35,782.93 q -3.045,-0.54 -6.08,-1.12 a 334.98,334.98 0 0 1 -61.14,-18.03 q -4.815,-1.935 -9.56,-4.01 c -2.16,-0.94 -4.32,-1.91 -6.46,-2.91 A 338.41,338.41 0 0 1 262,450 c 0,-186.67 151.33,-338 338,-338 186.67,0 338,151.33 338,338 z"
           transform="translate(-262,-112)"
           inkscape:connector-curvature="0"
           style="fill:#668000" />
        <path
           id="path1471"
           d="m 483.71,353.52 c -6.3805,35.997 7.7046,68.592 7.7046,68.592 0,0 24.43,-25.768 30.81,-61.766 6.38,-35.998 -7.7046,-68.592 -7.7046,-68.592 0,0 -24.43,25.768 -30.81,61.766 z"
           transform="translate(-262,-112)"
           inkscape:connector-curvature="0"
           style="opacity:0.2" />
        <g
           id="g1485"
           style="fill:#e3dedb">
          <path
             id="path1473"
             d="m 541.35,782.93 q -3.045,-0.54 -6.08,-1.12 c -1.32,-38.31 -5.85,-116.94 -21.3,-199.29 -8.45,-45.07 -20.18,-91.27 -36.45,-132.57 a 412.6,412.6 0 0 0 -19.07,-41.84 c -16.44,-31.05 -36.38,-57.19 -60.56,-74.9 l 3.56,-4.86 q 30.165,22.11 54.22,62.08 7.215,11.97 13.86,25.54 7.125,14.52 13.59,30.83 4.125,10.38 7.97,21.48 16.74,48.195 28.46,109.98 2.5951,13.65 4.94,27.97 c 12.11,73.97 15.76,142.36 16.86,176.7 z"
             transform="translate(-262,-112)"
             inkscape:connector-curvature="0"
             style="opacity:0.2" />
          <path
             id="path1475"
             d="m 464.57,759.77 c -2.16,-0.94 -4.32,-1.91 -6.46,-2.91 -2.09,-22.7 -5.93,-50.86 -12.95,-77.59 a 254.56,254.56 0 0 0 -11.81,-35.2 c -8.01,-18.75 -18.38,-34.69 -31.79,-44.52 l 3.56,-4.85 c 14.04,10.28 24.87,26.53 33.24,45.54 9.43,21.42 15.72,46.35 19.91,70.17 3.11,17.69 5.07,34.78 6.3,49.36 z"
             transform="translate(-262,-112)"
             inkscape:connector-curvature="0"
             style="opacity:0.2" />
          <circle
             id="circle1477"
             r="30.089001"
             cy="190.98"
             cx="102.26"
             style="opacity:0.2" />
          <circle
             id="circle1479"
             r="30.089001"
             cy="449.98999"
             cx="111.95"
             style="opacity:0.2" />
          <path
             id="path1481"
             d="m 383.72,438.97 c 34.335,12.555 68.837,4.498 68.837,4.498 0,0 -21.166,-28.413 -55.501,-40.968 -34.335,-12.555 -68.837,-4.498 -68.837,-4.498 0,0 21.166,28.413 55.501,40.968 z"
             transform="translate(-262,-112)"
             inkscape:connector-curvature="0"
             style="opacity:0.2" />
          <path
             id="path1483"
             d="m 377.9,668.33 c 24.066,8.8001 48.283,3.0594 48.283,3.0594 0,0 -14.802,-20.008 -38.868,-28.808 -24.066,-8.8 -48.283,-3.0594 -48.283,-3.0594 0,0 14.802,20.008 38.868,28.808 z"
             transform="translate(-262,-112)"
             inkscape:connector-curvature="0"
             style="opacity:0.2" />
        </g>
        <g
           id="g1501">
          <g
             id="g1491"
             style="fill:#faceaf">
            <circle
               id="circle1487"
               r="131.77"
               cy="281.07999"
               cx="337.31" />
            <path
               id="path1489"
               d="m 547.83,493.97 c 0,0 16.471,78.239 16.471,86.474 0,8.235 78.239,45.296 78.239,45.296 l 70.003,-12.353 24.707,-74.121 c 0,0 -41.178,-61.767 -41.178,-86.474 z"
               transform="translate(-262,-112)"
               inkscape:connector-curvature="0" />
          </g>
          <path
             id="path1493"
             d="m 485.04,286.92 c 0,0 41.837,-90.646 122.02,-69.728 80.183,20.918 125.51,52.296 129,83.673 3.49,31.377 -1.7432,78.443 -1.7432,78.443 0,0 -8.716,-64.498 -64.498,-50.552 -55.782,13.946 -142.94,3.4864 -142.94,3.4864 l -13.946,125.51 c 0,0 -15.689,-22.661 -33.121,-8.7159 -17.432,13.9451 -50.552,-134.23 5.2296,-162.12 z"
             transform="translate(-262,-112)"
             inkscape:connector-curvature="0"
             style="fill:#c87137" />
          <g
             id="g1499"
             style="fill:#aca793">
            <path
               id="path1495"
               d="m 910.78,583.1 -1.12,2.58 A 338.56,338.56 0 0 1 541.35,782.93 q -3.045,-0.54 -6.08,-1.12 a 334.98,334.98 0 0 1 -61.14,-18.03 q -4.815,-1.935 -9.56,-4.01 c -2.16,-0.94 -4.32,-1.91 -6.46,-2.91 a 337.59,337.59 0 0 1 -55.25,-32.28 l -15.62,-45.31 8.78,-6.7 18.06,-13.79 19.27,-14.71 5.01,-3.83 81.19,-61.98 39.3,-30 0.01,-0.01 c 0,0 42.5,69.25 104.27,48.66 61.77,-20.59 60.42,-79.63 60.42,-79.63 z"
               transform="translate(-262,-112)"
               inkscape:connector-curvature="0" />
            <path
               id="path1497"
               d="m 474.13,763.78 q -4.815,-1.935 -9.56,-4.01 c -2.16,-0.94 -4.32,-1.91 -6.46,-2.91 a 338.84,338.84 0 0 1 -87.59,-58.7 c 9.19,-12.52 16.72,-18.89 16.72,-18.89 h 61.77 l 9.26,31.14 z"
               transform="translate(-262,-112)"
               inkscape:connector-curvature="0" />
          </g>
        </g>
        <path
           id="path1503"
           d="m 856.67,576.32 52.99,9.36 a 337.94,337.94 0 0 1 -56.76,88.57 z"
           transform="translate(-262,-112)"
           inkscape:connector-curvature="0"
           style="fill-opacity:0" />
      </g>
      <g
         id="g1564"
         transform="matrix(0.99998741,0,0,0.99998741,-1134.2815,-1028.5671)">
        <path
           id="path1534"
           d="m 938,450 a 336.85,336.85 0 0 1 -27.22,133.1 l -1.12,2.58 A 338.56,338.56 0 0 1 541.35,782.93 q -3.045,-0.54 -6.08,-1.12 a 334.98,334.98 0 0 1 -61.14,-18.03 q -4.815,-1.935 -9.56,-4.01 c -2.16,-0.94 -4.32,-1.91 -6.46,-2.91 A 338.41,338.41 0 0 1 262,450 c 0,-186.67 151.33,-338 338,-338 186.67,0 338,151.33 338,338 z"
           transform="translate(-262,-112)"
           inkscape:connector-curvature="0"
           style="fill:#de8787" />
        <path
           id="path1536"
           d="m 541.35,782.93 q -3.045,-0.54 -6.08,-1.12 c -1.32,-38.31 -5.85,-116.94 -21.3,-199.29 -8.45,-45.07 -20.18,-91.27 -36.45,-132.57 a 412.6,412.6 0 0 0 -19.07,-41.84 c -16.44,-31.05 -36.38,-57.19 -60.56,-74.9 l 3.56,-4.86 q 30.165,22.11 54.22,62.08 7.215,11.97 13.86,25.54 7.125,14.52 13.59,30.83 4.125,10.38 7.97,21.48 16.74,48.195 28.46,109.98 2.5951,13.65 4.94,27.97 c 12.11,73.97 15.76,142.36 16.86,176.7 z"
           transform="translate(-262,-112)"
           inkscape:connector-curvature="0"
           style="opacity:0.2" />
        <path
           id="path1538"
           d="m 464.57,759.77 c -2.16,-0.94 -4.32,-1.91 -6.46,-2.91 -2.09,-22.7 -5.93,-50.86 -12.95,-77.59 a 254.56,254.56 0 0 0 -11.81,-35.2 c -8.01,-18.75 -18.38,-34.69 -31.79,-44.52 l 3.56,-4.85 c 14.04,10.28 24.87,26.53 33.24,45.54 9.43,21.42 15.72,46.35 19.91,70.17 3.11,17.69 5.07,34.78 6.3,49.36 z"
           transform="translate(-262,-112)"
           inkscape:connector-curvature="0"
           style="opacity:0.2" />
        <circle
           id="circle1540"
           r="30.089001"
           cy="190.98"
           cx="102.26"
           style="opacity:0.2" />
        <circle
           id="circle1542"
           r="30.089001"
           cy="449.98999"
           cx="111.95"
           style="opacity:0.2" />
        <path
           id="path1544"
           d="m 483.71,353.52 c -6.3805,35.997 7.7046,68.592 7.7046,68.592 0,0 24.43,-25.768 30.81,-61.766 6.38,-35.998 -7.7046,-68.592 -7.7046,-68.592 0,0 -24.43,25.768 -30.81,61.766 z"
           transform="translate(-262,-112)"
           inkscape:connector-curvature="0"
           style="opacity:0.2" />
        <path
           id="path1546"
           d="m 383.72,438.97 c 34.335,12.555 68.837,4.498 68.837,4.498 0,0 -21.166,-28.413 -55.501,-40.968 -34.335,-12.555 -68.837,-4.498 -68.837,-4.498 0,0 21.166,28.413 55.501,40.968 z"
           transform="translate(-262,-112)"
           inkscape:connector-curvature="0"
           style="opacity:0.2;fill:#2b2200" />
        <path
           id="path1548"
           d="m 377.9,668.33 c 24.066,8.8001 48.283,3.0594 48.283,3.0594 0,0 -14.802,-20.008 -38.868,-28.808 -24.066,-8.8 -48.283,-3.0594 -48.283,-3.0594 0,0 14.802,20.008 38.868,28.808 z"
           transform="translate(-262,-112)"
           inkscape:connector-curvature="0"
           style="opacity:0.2" />
        <circle
           id="circle1550"
           r="131.77"
           cy="281.07999"
           cx="337.31"
           style="fill:#f4e3d7" />
        <path
           id="path1552"
           d="m 547.83,493.97 c 0,0 16.471,78.239 16.471,86.474 0,8.235 78.239,45.296 78.239,45.296 l 70.003,-12.353 24.707,-74.121 c 0,0 -41.178,-61.767 -41.178,-86.474 z"
           transform="translate(-262,-112)"
           inkscape:connector-curvature="0"
           style="fill:#f4e3d7" />
        <g
           id="g1562">
          <path
             id="path1554"
             d="m 910.78,583.1 -1.12,2.58 A 338.56,338.56 0 0 1 541.35,782.93 q -3.045,-0.54 -6.08,-1.12 a 334.98,334.98 0 0 1 -61.14,-18.03 q -4.815,-1.935 -9.56,-4.01 c -2.16,-0.94 -4.32,-1.91 -6.46,-2.91 a 337.59,337.59 0 0 1 -55.25,-32.28 l -15.62,-45.31 8.78,-6.7 18.06,-13.79 19.27,-14.71 5.01,-3.83 81.19,-61.98 39.3,-30 0.01,-0.01 c 0,0 42.5,69.25 104.27,48.66 61.77,-20.59 60.42,-79.63 60.42,-79.63 z"
             transform="translate(-262,-112)"
             inkscape:connector-curvature="0"
             style="fill:#723d81" />
          <path
             id="path1556"
             d="m 485.04,286.92 c 0,0 41.837,-90.646 122.02,-69.728 80.183,20.918 125.51,52.296 129,83.673 3.49,31.377 -1.7432,78.443 -1.7432,78.443 0,0 -8.716,-64.498 -64.498,-50.552 -55.782,13.946 -142.94,3.4864 -142.94,3.4864 l -13.946,125.51 c 0,0 -15.689,-22.661 -33.121,-8.7159 -17.432,13.9451 -50.552,-134.23 5.2296,-162.12 z"
             transform="translate(-262,-112)"
             inkscape:connector-curvature="0"
             style="fill:#3a0000" />
          <path
             id="path1558"
             d="m 474.13,763.78 q -4.815,-1.935 -9.56,-4.01 c -2.16,-0.94 -4.32,-1.91 -6.46,-2.91 a 338.84,338.84 0 0 1 -87.59,-58.7 c 9.19,-12.52 16.72,-18.89 16.72,-18.89 h 61.77 l 9.26,31.14 z"
             transform="translate(-262,-112)"
             inkscape:connector-curvature="0"
             style="fill:#723d81" />
          <path
             id="path1560"
             d="m 856.67,576.32 52.99,9.36 a 337.94,337.94 0 0 1 -56.76,88.57 z"
             transform="translate(-262,-112)"
             inkscape:connector-curvature="0"
             style="fill:#723d81" />
        </g>
      </g>
      <g
         id="g1620"
         transform="matrix(0.99998741,0,0,0.99998741,948.57569,91.432887)">
        <path
           id="path1590"
           d="m 938,450 a 336.85,336.85 0 0 1 -27.22,133.1 l -1.12,2.58 A 338.56,338.56 0 0 1 541.35,782.93 q -3.045,-0.54 -6.08,-1.12 a 334.98,334.98 0 0 1 -61.14,-18.03 q -4.815,-1.935 -9.56,-4.01 c -2.16,-0.94 -4.32,-1.91 -6.46,-2.91 A 338.41,338.41 0 0 1 262,450 c 0,-186.67 151.33,-338 338,-338 186.67,0 338,151.33 338,338 z"
           transform="translate(-262,-112)"
           inkscape:connector-curvature="0"
           style="fill:#f4d7e3" />
        <path
           id="path1592"
           d="m 541.35,782.93 q -3.045,-0.54 -6.08,-1.12 c -1.32,-38.31 -5.85,-116.94 -21.3,-199.29 -8.45,-45.07 -20.18,-91.27 -36.45,-132.57 a 412.6,412.6 0 0 0 -19.07,-41.84 c -16.44,-31.05 -36.38,-57.19 -60.56,-74.9 l 3.56,-4.86 q 30.165,22.11 54.22,62.08 7.215,11.97 13.86,25.54 7.125,14.52 13.59,30.83 4.125,10.38 7.97,21.48 16.74,48.195 28.46,109.98 2.5951,13.65 4.94,27.97 c 12.11,73.97 15.76,142.36 16.86,176.7 z"
           transform="translate(-262,-112)"
           inkscape:connector-curvature="0"
           style="opacity:0.2" />
        <path
           id="path1594"
           d="m 464.57,759.77 c -2.16,-0.94 -4.32,-1.91 -6.46,-2.91 -2.09,-22.7 -5.93,-50.86 -12.95,-77.59 a 254.56,254.56 0 0 0 -11.81,-35.2 c -8.01,-18.75 -18.38,-34.69 -31.79,-44.52 l 3.56,-4.85 c 14.04,10.28 24.87,26.53 33.24,45.54 9.43,21.42 15.72,46.35 19.91,70.17 3.11,17.69 5.07,34.78 6.3,49.36 z"
           transform="translate(-262,-112)"
           inkscape:connector-curvature="0"
           style="opacity:0.2" />
        <circle
           id="circle1596"
           r="30.089001"
           cy="190.98"
           cx="102.26"
           style="opacity:0.2" />
        <circle
           id="circle1598"
           r="30.089001"
           cy="449.98999"
           cx="111.95"
           style="opacity:0.2" />
        <path
           id="path1600"
           d="m 483.71,353.52 c -6.3805,35.997 7.7046,68.592 7.7046,68.592 0,0 24.43,-25.768 30.81,-61.766 6.38,-35.998 -7.7046,-68.592 -7.7046,-68.592 0,0 -24.43,25.768 -30.81,61.766 z"
           transform="translate(-262,-112)"
           inkscape:connector-curvature="0"
           style="opacity:0.2" />
        <path
           id="path1602"
           d="m 383.72,438.97 c 34.335,12.555 68.837,4.498 68.837,4.498 0,0 -21.166,-28.413 -55.501,-40.968 -34.335,-12.555 -68.837,-4.498 -68.837,-4.498 0,0 21.166,28.413 55.501,40.968 z"
           transform="translate(-262,-112)"
           inkscape:connector-curvature="0"
           style="opacity:0.2;fill:#2b2200" />
        <path
           id="path1604"
           d="m 377.9,668.33 c 24.066,8.8001 48.283,3.0594 48.283,3.0594 0,0 -14.802,-20.008 -38.868,-28.808 -24.066,-8.8 -48.283,-3.0594 -48.283,-3.0594 0,0 14.802,20.008 38.868,28.808 z"
           transform="translate(-262,-112)"
           inkscape:connector-curvature="0"
           style="opacity:0.2" />
        <circle
           id="circle1606"
           r="131.77"
           cy="281.07999"
           cx="337.31"
           style="fill:#fbc6a2" />
        <path
           id="path1608"
           d="m 547.83,493.97 c 0,0 16.471,78.239 16.471,86.474 0,8.235 78.239,45.296 78.239,45.296 l 70.003,-12.353 24.707,-74.121 c 0,0 -41.178,-61.767 -41.178,-86.474 z"
           transform="translate(-262,-112)"
           inkscape:connector-curvature="0"
           style="fill:#fcc6a1;fill-opacity:0.99177001" />
        <g
           id="g1616">
          <path
             id="path1610"
             d="m 910.78,583.1 -1.12,2.58 A 338.56,338.56 0 0 1 541.35,782.93 q -3.045,-0.54 -6.08,-1.12 a 334.98,334.98 0 0 1 -61.14,-18.03 q -4.815,-1.935 -9.56,-4.01 c -2.16,-0.94 -4.32,-1.91 -6.46,-2.91 a 337.59,337.59 0 0 1 -55.25,-32.28 l -15.62,-45.31 8.78,-6.7 18.06,-13.79 19.27,-14.71 5.01,-3.83 81.19,-61.98 39.3,-30 0.01,-0.01 c 0,0 42.5,69.25 104.27,48.66 61.77,-20.59 60.42,-79.63 60.42,-79.63 z"
             transform="translate(-262,-112)"
             inkscape:connector-curvature="0"
             style="fill:#3771c8" />
          <path
             id="path1612"
             d="m 485.04,286.92 c 0,0 41.837,-90.646 122.02,-69.728 80.183,20.918 125.51,52.296 129,83.673 3.49,31.377 -1.7432,78.443 -1.7432,78.443 0,0 -8.716,-64.498 -64.498,-50.552 -55.782,13.946 -142.94,3.4864 -142.94,3.4864 l -13.946,125.51 c 0,0 -15.689,-22.661 -33.121,-8.7159 -17.432,13.9451 -50.552,-134.23 5.2296,-162.12 z"
             transform="translate(-262,-112)"
             inkscape:connector-curvature="0"
             style="fill:#0b2817" />
          <path
             id="path1614"
             d="m 474.13,763.78 q -4.815,-1.935 -9.56,-4.01 c -2.16,-0.94 -4.32,-1.91 -6.46,-2.91 a 338.84,338.84 0 0 1 -87.59,-58.7 c 9.19,-12.52 16.72,-18.89 16.72,-18.89 h 61.77 l 9.26,31.14 z"
             transform="translate(-262,-112)"
             inkscape:connector-curvature="0"
             style="fill:#3771c8" />
        </g>
        <path
           id="path1618"
           d="m 856.67,576.32 52.99,9.36 a 337.94,337.94 0 0 1 -56.76,88.57 z"
           transform="translate(-262,-112)"
           inkscape:connector-curvature="0"
           style="fill-opacity:0" />
      </g>
      <g
         id="g1680"
         transform="matrix(0.99998741,0,0,0.99998741,948.57569,91.432887)">
        <path
           id="path1646"
           d="m 938,450 a 336.85,336.85 0 0 1 -27.22,133.1 l -1.12,2.58 A 338.56,338.56 0 0 1 541.35,782.93 q -3.045,-0.54 -6.08,-1.12 a 334.98,334.98 0 0 1 -61.14,-18.03 q -4.815,-1.935 -9.56,-4.01 c -2.16,-0.94 -4.32,-1.91 -6.46,-2.91 A 338.41,338.41 0 0 1 262,450 c 0,-186.67 151.33,-338 338,-338 186.67,0 338,151.33 338,338 z"
           transform="translate(-262,-112)"
           inkscape:connector-curvature="0"
           style="fill:#b3a3ca" />
        <path
           id="path1648"
           d="m 483.71,353.52 c -6.3805,35.997 7.7046,68.592 7.7046,68.592 0,0 24.43,-25.768 30.81,-61.766 6.38,-35.998 -7.7046,-68.592 -7.7046,-68.592 0,0 -24.43,25.768 -30.81,61.766 z"
           transform="translate(-262,-112)"
           inkscape:connector-curvature="0"
           style="opacity:0.2" />
        <g
           id="g1662"
           style="fill:#ffffff">
          <path
             id="path1650"
             d="m 541.35,782.93 q -3.045,-0.54 -6.08,-1.12 c -1.32,-38.31 -5.85,-116.94 -21.3,-199.29 -8.45,-45.07 -20.18,-91.27 -36.45,-132.57 a 412.6,412.6 0 0 0 -19.07,-41.84 c -16.44,-31.05 -36.38,-57.19 -60.56,-74.9 l 3.56,-4.86 q 30.165,22.11 54.22,62.08 7.215,11.97 13.86,25.54 7.125,14.52 13.59,30.83 4.125,10.38 7.97,21.48 16.74,48.195 28.46,109.98 2.5951,13.65 4.94,27.97 c 12.11,73.97 15.76,142.36 16.86,176.7 z"
             transform="translate(-262,-112)"
             inkscape:connector-curvature="0"
             style="opacity:0.2" />
          <path
             id="path1652"
             d="m 464.57,759.77 c -2.16,-0.94 -4.32,-1.91 -6.46,-2.91 -2.09,-22.7 -5.93,-50.86 -12.95,-77.59 a 254.56,254.56 0 0 0 -11.81,-35.2 c -8.01,-18.75 -18.38,-34.69 -31.79,-44.52 l 3.56,-4.85 c 14.04,10.28 24.87,26.53 33.24,45.54 9.43,21.42 15.72,46.35 19.91,70.17 3.11,17.69 5.07,34.78 6.3,49.36 z"
             transform="translate(-262,-112)"
             inkscape:connector-curvature="0"
             style="opacity:0.2" />
          <circle
             id="circle1654"
             r="30.089001"
             cy="190.98"
             cx="102.26"
             style="opacity:0.2" />
          <circle
             id="circle1656"
             r="30.089001"
             cy="449.98999"
             cx="111.95"
             style="opacity:0.2" />
          <path
             id="path1658"
             d="m 383.72,438.97 c 34.335,12.555 68.837,4.498 68.837,4.498 0,0 -21.166,-28.413 -55.501,-40.968 -34.335,-12.555 -68.837,-4.498 -68.837,-4.498 0,0 21.166,28.413 55.501,40.968 z"
             transform="translate(-262,-112)"
             inkscape:connector-curvature="0"
             style="opacity:0.2" />
          <path
             id="path1660"
             d="m 377.9,668.33 c 24.066,8.8001 48.283,3.0594 48.283,3.0594 0,0 -14.802,-20.008 -38.868,-28.808 -24.066,-8.8 -48.283,-3.0594 -48.283,-3.0594 0,0 14.802,20.008 38.868,28.808 z"
             transform="translate(-262,-112)"
             inkscape:connector-curvature="0"
             style="opacity:0.2" />
        </g>
        <g
           id="g1676">
          <circle
             id="circle1664"
             r="131.77"
             cy="281.07999"
             cx="337.31"
             style="fill:#dda178" />
          <path
             id="path1666"
             d="m 547.83,493.97 c 0,0 16.471,78.239 16.471,86.474 0,8.235 78.239,45.296 78.239,45.296 l 70.003,-12.353 24.707,-74.121 c 0,0 -41.178,-61.767 -41.178,-86.474 z"
             transform="translate(-262,-112)"
             inkscape:connector-curvature="0"
             style="fill:#dda178" />
          <path
             id="path1668"
             d="m 485.04,286.92 c 0,0 41.837,-90.646 122.02,-69.728 80.183,20.918 125.51,52.296 129,83.673 3.49,31.377 -1.7432,78.443 -1.7432,78.443 0,0 -8.716,-64.498 -64.498,-50.552 -55.782,13.946 -142.94,3.4864 -142.94,3.4864 l -13.946,125.51 c 0,0 -15.689,-22.661 -33.121,-8.7159 -17.432,13.9451 -50.552,-134.23 5.2296,-162.12 z"
             transform="translate(-262,-112)"
             inkscape:connector-curvature="0"
             style="fill:#784421" />
          <g
             id="g1674"
             style="fill:#c15858">
            <path
               id="path1670"
               d="m 910.78,583.1 -1.12,2.58 A 338.56,338.56 0 0 1 541.35,782.93 q -3.045,-0.54 -6.08,-1.12 a 334.98,334.98 0 0 1 -61.14,-18.03 q -4.815,-1.935 -9.56,-4.01 c -2.16,-0.94 -4.32,-1.91 -6.46,-2.91 a 337.59,337.59 0 0 1 -55.25,-32.28 l -15.62,-45.31 8.78,-6.7 18.06,-13.79 19.27,-14.71 5.01,-3.83 81.19,-61.98 39.3,-30 0.01,-0.01 c 0,0 42.5,69.25 104.27,48.66 61.77,-20.59 60.42,-79.63 60.42,-79.63 z"
               transform="translate(-262,-112)"
               inkscape:connector-curvature="0" />
            <path
               id="path1672"
               d="m 474.13,763.78 q -4.815,-1.935 -9.56,-4.01 c -2.16,-0.94 -4.32,-1.91 -6.46,-2.91 a 338.84,338.84 0 0 1 -87.59,-58.7 c 9.19,-12.52 16.72,-18.89 16.72,-18.89 h 61.77 l 9.26,31.14 z"
               transform="translate(-262,-112)"
               inkscape:connector-curvature="0" />
          </g>
        </g>
        <path
           id="path1678"
           d="m 856.67,576.32 52.99,9.36 a 337.94,337.94 0 0 1 -56.76,88.57 z"
           transform="translate(-262,-112)"
           inkscape:connector-curvature="0"
           style="fill-opacity:0" />
      </g>
      <g
         id="g1740"
         transform="matrix(0.99998741,0,0,0.99998741,-62.849656,320.00585)">
        <path
           id="path1708"
           d="m 938,450 a 336.85,336.85 0 0 1 -27.22,133.1 l -1.12,2.58 A 338.56,338.56 0 0 1 541.35,782.93 q -3.045,-0.54 -6.08,-1.12 a 334.98,334.98 0 0 1 -61.14,-18.03 q -4.815,-1.935 -9.56,-4.01 c -2.16,-0.94 -4.32,-1.91 -6.46,-2.91 A 338.41,338.41 0 0 1 262,450 c 0,-186.67 151.33,-338 338,-338 186.67,0 338,151.33 338,338 z"
           transform="translate(-262,-112)"
           inkscape:connector-curvature="0"
           style="fill:#004455" />
        <path
           id="path1710"
           d="m 483.71,353.52 c -6.3805,35.997 7.7046,68.592 7.7046,68.592 0,0 24.43,-25.768 30.81,-61.766 6.38,-35.998 -7.7046,-68.592 -7.7046,-68.592 0,0 -24.43,25.768 -30.81,61.766 z"
           transform="translate(-262,-112)"
           inkscape:connector-curvature="0"
           style="opacity:0.2" />
        <g
           id="g1724"
           style="fill:#ffffff">
          <path
             id="path1712"
             d="m 541.35,782.93 q -3.045,-0.54 -6.08,-1.12 c -1.32,-38.31 -5.85,-116.94 -21.3,-199.29 -8.45,-45.07 -20.18,-91.27 -36.45,-132.57 a 412.6,412.6 0 0 0 -19.07,-41.84 c -16.44,-31.05 -36.38,-57.19 -60.56,-74.9 l 3.56,-4.86 q 30.165,22.11 54.22,62.08 7.215,11.97 13.86,25.54 7.125,14.52 13.59,30.83 4.125,10.38 7.97,21.48 16.74,48.195 28.46,109.98 2.5951,13.65 4.94,27.97 c 12.11,73.97 15.76,142.36 16.86,176.7 z"
             transform="translate(-262,-112)"
             inkscape:connector-curvature="0"
             style="opacity:0.2" />
          <path
             id="path1714"
             d="m 464.57,759.77 c -2.16,-0.94 -4.32,-1.91 -6.46,-2.91 -2.09,-22.7 -5.93,-50.86 -12.95,-77.59 a 254.56,254.56 0 0 0 -11.81,-35.2 c -8.01,-18.75 -18.38,-34.69 -31.79,-44.52 l 3.56,-4.85 c 14.04,10.28 24.87,26.53 33.24,45.54 9.43,21.42 15.72,46.35 19.91,70.17 3.11,17.69 5.07,34.78 6.3,49.36 z"
             transform="translate(-262,-112)"
             inkscape:connector-curvature="0"
             style="opacity:0.2" />
          <circle
             id="circle1716"
             r="30.089001"
             cy="190.98"
             cx="102.26"
             style="opacity:0.2" />
          <circle
             id="circle1718"
             r="30.089001"
             cy="449.98999"
             cx="111.95"
             style="opacity:0.2" />
          <path
             id="path1720"
             d="m 383.72,438.97 c 34.335,12.555 68.837,4.498 68.837,4.498 0,0 -21.166,-28.413 -55.501,-40.968 -34.335,-12.555 -68.837,-4.498 -68.837,-4.498 0,0 21.166,28.413 55.501,40.968 z"
             transform="translate(-262,-112)"
             inkscape:connector-curvature="0"
             style="opacity:0.2" />
          <path
             id="path1722"
             d="m 377.9,668.33 c 24.066,8.8001 48.283,3.0594 48.283,3.0594 0,0 -14.802,-20.008 -38.868,-28.808 -24.066,-8.8 -48.283,-3.0594 -48.283,-3.0594 0,0 14.802,20.008 38.868,28.808 z"
             transform="translate(-262,-112)"
             inkscape:connector-curvature="0"
             style="opacity:0.2" />
        </g>
        <circle
           id="circle1726"
           r="131.77"
           cy="281.07999"
           cx="337.31"
           style="fill:#ffe6d5" />
        <path
           id="path1728"
           d="m 547.83,493.97 c 0,0 16.471,78.239 16.471,86.474 0,8.235 78.239,45.296 78.239,45.296 l 70.003,-12.353 24.707,-74.121 c 0,0 -41.178,-61.767 -41.178,-86.474 z"
           transform="translate(-262,-112)"
           inkscape:connector-curvature="0"
           style="fill:#ffe6d5;fill-opacity:0.98039" />
        <path
           id="path1730"
           d="m 485.04,286.92 c 0,0 41.837,-90.646 122.02,-69.728 80.183,20.918 125.51,52.296 129,83.673 3.49,31.377 -1.7432,78.443 -1.7432,78.443 0,0 -8.716,-64.498 -64.498,-50.552 -55.782,13.946 -142.94,3.4864 -142.94,3.4864 l -13.946,125.51 c 0,0 -15.689,-22.661 -33.121,-8.7159 -17.432,13.9451 -50.552,-134.23 5.2296,-162.12 z"
           transform="translate(-262,-112)"
           inkscape:connector-curvature="0"
           style="fill:#ffcc00" />
        <g
           id="g1736"
           style="fill:#93a7ac">
          <path
             id="path1732"
             d="m 910.78,583.1 -1.12,2.58 A 338.56,338.56 0 0 1 541.35,782.93 q -3.045,-0.54 -6.08,-1.12 a 334.98,334.98 0 0 1 -61.14,-18.03 q -4.815,-1.935 -9.56,-4.01 c -2.16,-0.94 -4.32,-1.91 -6.46,-2.91 a 337.59,337.59 0 0 1 -55.25,-32.28 l -15.62,-45.31 8.78,-6.7 18.06,-13.79 19.27,-14.71 5.01,-3.83 81.19,-61.98 39.3,-30 0.01,-0.01 c 0,0 42.5,69.25 104.27,48.66 61.77,-20.59 60.42,-79.63 60.42,-79.63 z"
             transform="translate(-262,-112)"
             inkscape:connector-curvature="0" />
          <path
             id="path1734"
             d="m 474.13,763.78 q -4.815,-1.935 -9.56,-4.01 c -2.16,-0.94 -4.32,-1.91 -6.46,-2.91 a 338.84,338.84 0 0 1 -87.59,-58.7 c 9.19,-12.52 16.72,-18.89 16.72,-18.89 h 61.77 l 9.26,31.14 z"
             transform="translate(-262,-112)"
             inkscape:connector-curvature="0" />
        </g>
        <path
           id="path1738"
           d="m 856.67,576.32 52.99,9.36 a 337.94,337.94 0 0 1 -56.76,88.57 z"
           transform="translate(-262,-112)"
           inkscape:connector-curvature="0"
           style="fill-opacity:0" />
      </g>
      <g
         id="g1801"
         transform="matrix(0.99998741,0,0,0.99998741,1742.8614,137.14717)">
        <path
           id="path1767"
           d="m 938,450 a 336.85,336.85 0 0 1 -27.22,133.1 l -1.12,2.58 A 338.56,338.56 0 0 1 541.35,782.93 q -3.045,-0.54 -6.08,-1.12 a 334.98,334.98 0 0 1 -61.14,-18.03 q -4.815,-1.935 -9.56,-4.01 c -2.16,-0.94 -4.32,-1.91 -6.46,-2.91 A 338.41,338.41 0 0 1 262,450 c 0,-186.67 151.33,-338 338,-338 186.67,0 338,151.33 338,338 z"
           transform="translate(-262,-112)"
           inkscape:connector-curvature="0"
           style="fill:#ffe680" />
        <path
           id="path1769"
           d="m 483.71,353.52 c -6.3805,35.997 7.7046,68.592 7.7046,68.592 0,0 24.43,-25.768 30.81,-61.766 6.38,-35.998 -7.7046,-68.592 -7.7046,-68.592 0,0 -24.43,25.768 -30.81,61.766 z"
           transform="translate(-262,-112)"
           inkscape:connector-curvature="0"
           style="opacity:0.2" />
        <g
           id="g1783"
           style="fill:#ff0000">
          <path
             id="path1771"
             d="m 541.35,782.93 q -3.045,-0.54 -6.08,-1.12 c -1.32,-38.31 -5.85,-116.94 -21.3,-199.29 -8.45,-45.07 -20.18,-91.27 -36.45,-132.57 a 412.6,412.6 0 0 0 -19.07,-41.84 c -16.44,-31.05 -36.38,-57.19 -60.56,-74.9 l 3.56,-4.86 q 30.165,22.11 54.22,62.08 7.215,11.97 13.86,25.54 7.125,14.52 13.59,30.83 4.125,10.38 7.97,21.48 16.74,48.195 28.46,109.98 2.5951,13.65 4.94,27.97 c 12.11,73.97 15.76,142.36 16.86,176.7 z"
             transform="translate(-262,-112)"
             inkscape:connector-curvature="0"
             style="opacity:0.2" />
          <path
             id="path1773"
             d="m 464.57,759.77 c -2.16,-0.94 -4.32,-1.91 -6.46,-2.91 -2.09,-22.7 -5.93,-50.86 -12.95,-77.59 a 254.56,254.56 0 0 0 -11.81,-35.2 c -8.01,-18.75 -18.38,-34.69 -31.79,-44.52 l 3.56,-4.85 c 14.04,10.28 24.87,26.53 33.24,45.54 9.43,21.42 15.72,46.35 19.91,70.17 3.11,17.69 5.07,34.78 6.3,49.36 z"
             transform="translate(-262,-112)"
             inkscape:connector-curvature="0"
             style="opacity:0.2" />
          <circle
             id="circle1775"
             r="30.089001"
             cy="190.98"
             cx="102.26"
             style="opacity:0.2" />
          <circle
             id="circle1777"
             r="30.089001"
             cy="449.98999"
             cx="111.95"
             style="opacity:0.2" />
          <path
             id="path1779"
             d="m 383.72,438.97 c 34.335,12.555 68.837,4.498 68.837,4.498 0,0 -21.166,-28.413 -55.501,-40.968 -34.335,-12.555 -68.837,-4.498 -68.837,-4.498 0,0 21.166,28.413 55.501,40.968 z"
             transform="translate(-262,-112)"
             inkscape:connector-curvature="0"
             style="opacity:0.2" />
          <path
             id="path1781"
             d="m 377.9,668.33 c 24.066,8.8001 48.283,3.0594 48.283,3.0594 0,0 -14.802,-20.008 -38.868,-28.808 -24.066,-8.8 -48.283,-3.0594 -48.283,-3.0594 0,0 14.802,20.008 38.868,28.808 z"
             transform="translate(-262,-112)"
             inkscape:connector-curvature="0"
             style="opacity:0.2" />
        </g>
        <g
           id="g1789"
           style="fill:#ffccaa">
          <circle
             id="circle1785"
             r="131.77"
             cy="281.07999"
             cx="337.31" />
          <path
             id="path1787"
             d="m 547.83,493.97 c 0,0 16.471,78.239 16.471,86.474 0,8.235 78.239,45.296 78.239,45.296 l 70.003,-12.353 24.707,-74.121 c 0,0 -41.178,-61.767 -41.178,-86.474 z"
             transform="translate(-262,-112)"
             inkscape:connector-curvature="0" />
        </g>
        <path
           id="path1791"
           d="m 485.04,286.92 c 0,0 41.837,-90.646 122.02,-69.728 80.183,20.918 125.51,52.296 129,83.673 3.49,31.377 -1.7432,78.443 -1.7432,78.443 0,0 -8.716,-64.498 -64.498,-50.552 -55.782,13.946 -142.94,3.4864 -142.94,3.4864 l -13.946,125.51 c 0,0 -15.689,-22.661 -33.121,-8.7159 -17.432,13.9451 -50.552,-134.23 5.2296,-162.12 z"
           transform="translate(-262,-112)"
           inkscape:connector-curvature="0"
           style="fill:#a02c2c" />
        <g
           id="g1797"
           style="fill:#445500">
          <path
             id="path1793"
             d="m 910.78,583.1 -1.12,2.58 A 338.56,338.56 0 0 1 541.35,782.93 q -3.045,-0.54 -6.08,-1.12 a 334.98,334.98 0 0 1 -61.14,-18.03 q -4.815,-1.935 -9.56,-4.01 c -2.16,-0.94 -4.32,-1.91 -6.46,-2.91 a 337.59,337.59 0 0 1 -55.25,-32.28 l -15.62,-45.31 8.78,-6.7 18.06,-13.79 19.27,-14.71 5.01,-3.83 81.19,-61.98 39.3,-30 0.01,-0.01 c 0,0 42.5,69.25 104.27,48.66 61.77,-20.59 60.42,-79.63 60.42,-79.63 z"
             transform="translate(-262,-112)"
             inkscape:connector-curvature="0" />
          <path
             id="path1795"
             d="m 474.13,763.78 q -4.815,-1.935 -9.56,-4.01 c -2.16,-0.94 -4.32,-1.91 -6.46,-2.91 a 338.84,338.84 0 0 1 -87.59,-58.7 c 9.19,-12.52 16.72,-18.89 16.72,-18.89 h 61.77 l 9.26,31.14 z"
             transform="translate(-262,-112)"
             inkscape:connector-curvature="0" />
        </g>
        <path
           id="path1799"
           d="m 856.67,576.32 52.99,9.36 a 337.94,337.94 0 0 1 -56.76,88.57 z"
           transform="translate(-262,-112)"
           inkscape:connector-curvature="0"
           style="fill-opacity:0" />
      </g>
      <g
         id="g1863"
         transform="matrix(0.99998741,0,0,0.99998741,654.28998,-811.42427)">
        <path
           id="path1829"
           d="m 938,450 a 336.85,336.85 0 0 1 -27.22,133.1 l -1.12,2.58 A 338.56,338.56 0 0 1 541.35,782.93 q -3.045,-0.54 -6.08,-1.12 a 334.98,334.98 0 0 1 -61.14,-18.03 q -4.815,-1.935 -9.56,-4.01 c -2.16,-0.94 -4.32,-1.91 -6.46,-2.91 A 338.41,338.41 0 0 1 262,450 c 0,-186.67 151.33,-338 338,-338 186.67,0 338,151.33 338,338 z"
           transform="translate(-262,-112)"
           inkscape:connector-curvature="0"
           style="fill:#ffe680" />
        <path
           id="path1831"
           d="m 483.71,353.52 c -6.3805,35.997 7.7046,68.592 7.7046,68.592 0,0 24.43,-25.768 30.81,-61.766 6.38,-35.998 -7.7046,-68.592 -7.7046,-68.592 0,0 -24.43,25.768 -30.81,61.766 z"
           transform="translate(-262,-112)"
           inkscape:connector-curvature="0"
           style="opacity:0.2" />
        <g
           id="g1845"
           style="fill:#ff0000">
          <path
             id="path1833"
             d="m 541.35,782.93 q -3.045,-0.54 -6.08,-1.12 c -1.32,-38.31 -5.85,-116.94 -21.3,-199.29 -8.45,-45.07 -20.18,-91.27 -36.45,-132.57 a 412.6,412.6 0 0 0 -19.07,-41.84 c -16.44,-31.05 -36.38,-57.19 -60.56,-74.9 l 3.56,-4.86 q 30.165,22.11 54.22,62.08 7.215,11.97 13.86,25.54 7.125,14.52 13.59,30.83 4.125,10.38 7.97,21.48 16.74,48.195 28.46,109.98 2.5951,13.65 4.94,27.97 c 12.11,73.97 15.76,142.36 16.86,176.7 z"
             transform="translate(-262,-112)"
             inkscape:connector-curvature="0"
             style="opacity:0.2" />
          <path
             id="path1835"
             d="m 464.57,759.77 c -2.16,-0.94 -4.32,-1.91 -6.46,-2.91 -2.09,-22.7 -5.93,-50.86 -12.95,-77.59 a 254.56,254.56 0 0 0 -11.81,-35.2 c -8.01,-18.75 -18.38,-34.69 -31.79,-44.52 l 3.56,-4.85 c 14.04,10.28 24.87,26.53 33.24,45.54 9.43,21.42 15.72,46.35 19.91,70.17 3.11,17.69 5.07,34.78 6.3,49.36 z"
             transform="translate(-262,-112)"
             inkscape:connector-curvature="0"
             style="opacity:0.2" />
          <circle
             id="circle1837"
             r="30.089001"
             cy="190.98"
             cx="102.26"
             style="opacity:0.2" />
          <circle
             id="circle1839"
             r="30.089001"
             cy="449.98999"
             cx="111.95"
             style="opacity:0.2" />
          <path
             id="path1841"
             d="m 383.72,438.97 c 34.335,12.555 68.837,4.498 68.837,4.498 0,0 -21.166,-28.413 -55.501,-40.968 -34.335,-12.555 -68.837,-4.498 -68.837,-4.498 0,0 21.166,28.413 55.501,40.968 z"
             transform="translate(-262,-112)"
             inkscape:connector-curvature="0"
             style="opacity:0.2" />
          <path
             id="path1843"
             d="m 377.9,668.33 c 24.066,8.8001 48.283,3.0594 48.283,3.0594 0,0 -14.802,-20.008 -38.868,-28.808 -24.066,-8.8 -48.283,-3.0594 -48.283,-3.0594 0,0 14.802,20.008 38.868,28.808 z"
             transform="translate(-262,-112)"
             inkscape:connector-curvature="0"
             style="opacity:0.2" />
        </g>
        <g
           id="g1851"
           style="fill:#ffccaa">
          <circle
             id="circle1847"
             r="131.77"
             cy="281.07999"
             cx="337.31" />
          <path
             id="path1849"
             d="m 547.83,493.97 c 0,0 16.471,78.239 16.471,86.474 0,8.235 78.239,45.296 78.239,45.296 l 70.003,-12.353 24.707,-74.121 c 0,0 -41.178,-61.767 -41.178,-86.474 z"
             transform="translate(-262,-112)"
             inkscape:connector-curvature="0" />
        </g>
        <path
           id="path1853"
           d="m 485.04,286.92 c 0,0 41.837,-90.646 122.02,-69.728 80.183,20.918 125.51,52.296 129,83.673 3.49,31.377 -1.7432,78.443 -1.7432,78.443 0,0 -8.716,-64.498 -64.498,-50.552 -55.782,13.946 -142.94,3.4864 -142.94,3.4864 l -13.946,125.51 c 0,0 -15.689,-22.661 -33.121,-8.7159 -17.432,13.9451 -50.552,-134.23 5.2296,-162.12 z"
           transform="translate(-262,-112)"
           inkscape:connector-curvature="0"
           style="fill:#003380" />
        <g
           id="g1859"
           style="fill:#0b2228">
          <path
             id="path1855"
             d="m 910.78,583.1 -1.12,2.58 A 338.56,338.56 0 0 1 541.35,782.93 q -3.045,-0.54 -6.08,-1.12 a 334.98,334.98 0 0 1 -61.14,-18.03 q -4.815,-1.935 -9.56,-4.01 c -2.16,-0.94 -4.32,-1.91 -6.46,-2.91 a 337.59,337.59 0 0 1 -55.25,-32.28 l -15.62,-45.31 8.78,-6.7 18.06,-13.79 19.27,-14.71 5.01,-3.83 81.19,-61.98 39.3,-30 0.01,-0.01 c 0,0 42.5,69.25 104.27,48.66 61.77,-20.59 60.42,-79.63 60.42,-79.63 z"
             transform="translate(-262,-112)"
             inkscape:connector-curvature="0" />
          <path
             id="path1857"
             d="m 474.13,763.78 q -4.815,-1.935 -9.56,-4.01 c -2.16,-0.94 -4.32,-1.91 -6.46,-2.91 a 338.84,338.84 0 0 1 -87.59,-58.7 c 9.19,-12.52 16.72,-18.89 16.72,-18.89 h 61.77 l 9.26,31.14 z"
             transform="translate(-262,-112)"
             inkscape:connector-curvature="0" />
        </g>
        <path
           id="path1861"
           d="m 856.67,576.32 52.99,9.36 a 337.94,337.94 0 0 1 -56.76,88.57 z"
           transform="translate(-262,-112)"
           inkscape:connector-curvature="0"
           style="fill-opacity:0" />
      </g>
      <g
         id="g1925"
         transform="matrix(0.99998741,0,0,0.99998741,1450.0043,802.86147)">
        <path
           id="path1891"
           d="m 938,450 a 336.85,336.85 0 0 1 -27.22,133.1 l -1.12,2.58 A 338.56,338.56 0 0 1 541.35,782.93 q -3.045,-0.54 -6.08,-1.12 a 334.98,334.98 0 0 1 -61.14,-18.03 q -4.815,-1.935 -9.56,-4.01 c -2.16,-0.94 -4.32,-1.91 -6.46,-2.91 A 338.41,338.41 0 0 1 262,450 c 0,-186.67 151.33,-338 338,-338 186.67,0 338,151.33 338,338 z"
           transform="translate(-262,-112)"
           inkscape:connector-curvature="0"
           style="fill:#d5d5ff" />
        <path
           id="path1893"
           d="m 483.71,353.52 c -6.3805,35.997 7.7046,68.592 7.7046,68.592 0,0 24.43,-25.768 30.81,-61.766 6.38,-35.998 -7.7046,-68.592 -7.7046,-68.592 0,0 -24.43,25.768 -30.81,61.766 z"
           transform="translate(-262,-112)"
           inkscape:connector-curvature="0"
           style="opacity:0.2" />
        <g
           id="g1907"
           style="fill:#ff0000">
          <path
             id="path1895"
             d="m 541.35,782.93 q -3.045,-0.54 -6.08,-1.12 c -1.32,-38.31 -5.85,-116.94 -21.3,-199.29 -8.45,-45.07 -20.18,-91.27 -36.45,-132.57 a 412.6,412.6 0 0 0 -19.07,-41.84 c -16.44,-31.05 -36.38,-57.19 -60.56,-74.9 l 3.56,-4.86 q 30.165,22.11 54.22,62.08 7.215,11.97 13.86,25.54 7.125,14.52 13.59,30.83 4.125,10.38 7.97,21.48 16.74,48.195 28.46,109.98 2.5951,13.65 4.94,27.97 c 12.11,73.97 15.76,142.36 16.86,176.7 z"
             transform="translate(-262,-112)"
             inkscape:connector-curvature="0"
             style="opacity:0.2" />
          <path
             id="path1897"
             d="m 464.57,759.77 c -2.16,-0.94 -4.32,-1.91 -6.46,-2.91 -2.09,-22.7 -5.93,-50.86 -12.95,-77.59 a 254.56,254.56 0 0 0 -11.81,-35.2 c -8.01,-18.75 -18.38,-34.69 -31.79,-44.52 l 3.56,-4.85 c 14.04,10.28 24.87,26.53 33.24,45.54 9.43,21.42 15.72,46.35 19.91,70.17 3.11,17.69 5.07,34.78 6.3,49.36 z"
             transform="translate(-262,-112)"
             inkscape:connector-curvature="0"
             style="opacity:0.2" />
          <circle
             id="circle1899"
             r="30.089001"
             cy="190.98"
             cx="102.26"
             style="opacity:0.2" />
          <circle
             id="circle1901"
             r="30.089001"
             cy="449.98999"
             cx="111.95"
             style="opacity:0.2" />
          <path
             id="path1903"
             d="m 383.72,438.97 c 34.335,12.555 68.837,4.498 68.837,4.498 0,0 -21.166,-28.413 -55.501,-40.968 -34.335,-12.555 -68.837,-4.498 -68.837,-4.498 0,0 21.166,28.413 55.501,40.968 z"
             transform="translate(-262,-112)"
             inkscape:connector-curvature="0"
             style="opacity:0.2" />
          <path
             id="path1905"
             d="m 377.9,668.33 c 24.066,8.8001 48.283,3.0594 48.283,3.0594 0,0 -14.802,-20.008 -38.868,-28.808 -24.066,-8.8 -48.283,-3.0594 -48.283,-3.0594 0,0 14.802,20.008 38.868,28.808 z"
             transform="translate(-262,-112)"
             inkscape:connector-curvature="0"
             style="opacity:0.2" />
        </g>
        <g
           id="g1913"
           style="fill:#ffb380">
          <circle
             id="circle1909"
             r="131.77"
             cy="281.07999"
             cx="337.31" />
          <path
             id="path1911"
             d="m 547.83,493.97 c 0,0 16.471,78.239 16.471,86.474 0,8.235 78.239,45.296 78.239,45.296 l 70.003,-12.353 24.707,-74.121 c 0,0 -41.178,-61.767 -41.178,-86.474 z"
             transform="translate(-262,-112)"
             inkscape:connector-curvature="0" />
        </g>
        <path
           id="path1915"
           d="m 485.04,286.92 c 0,0 41.837,-90.646 122.02,-69.728 80.183,20.918 125.51,52.296 129,83.673 3.49,31.377 -1.7432,78.443 -1.7432,78.443 0,0 -8.716,-64.498 -64.498,-50.552 -55.782,13.946 -142.94,3.4864 -142.94,3.4864 l -13.946,125.51 c 0,0 -15.689,-22.661 -33.121,-8.7159 -17.432,13.9451 -50.552,-134.23 5.2296,-162.12 z"
           transform="translate(-262,-112)"
           inkscape:connector-curvature="0"
           style="fill:#88aa00" />
        <g
           id="g1921"
           style="fill:#a02c89">
          <path
             id="path1917"
             d="m 910.78,583.1 -1.12,2.58 A 338.56,338.56 0 0 1 541.35,782.93 q -3.045,-0.54 -6.08,-1.12 a 334.98,334.98 0 0 1 -61.14,-18.03 q -4.815,-1.935 -9.56,-4.01 c -2.16,-0.94 -4.32,-1.91 -6.46,-2.91 a 337.59,337.59 0 0 1 -55.25,-32.28 l -15.62,-45.31 8.78,-6.7 18.06,-13.79 19.27,-14.71 5.01,-3.83 81.19,-61.98 39.3,-30 0.01,-0.01 c 0,0 42.5,69.25 104.27,48.66 61.77,-20.59 60.42,-79.63 60.42,-79.63 z"
             transform="translate(-262,-112)"
             inkscape:connector-curvature="0" />
          <path
             id="path1919"
             d="m 474.13,763.78 q -4.815,-1.935 -9.56,-4.01 c -2.16,-0.94 -4.32,-1.91 -6.46,-2.91 a 338.84,338.84 0 0 1 -87.59,-58.7 c 9.19,-12.52 16.72,-18.89 16.72,-18.89 h 61.77 l 9.26,31.14 z"
             transform="translate(-262,-112)"
             inkscape:connector-curvature="0" />
        </g>
        <path
           id="path1923"
           d="m 856.67,576.32 52.99,9.36 a 337.94,337.94 0 0 1 -56.76,88.57 z"
           transform="translate(-262,-112)"
           inkscape:connector-curvature="0"
           style="fill-opacity:0" />
      </g>
      <g
         id="g1987"
         transform="matrix(0.99998741,0,0,0.99998741,2165.7186,-922.85284)">
        <path
           id="path1953"
           d="m 938,450 a 336.85,336.85 0 0 1 -27.22,133.1 l -1.12,2.58 A 338.56,338.56 0 0 1 541.35,782.93 q -3.045,-0.54 -6.08,-1.12 a 334.98,334.98 0 0 1 -61.14,-18.03 q -4.815,-1.935 -9.56,-4.01 c -2.16,-0.94 -4.32,-1.91 -6.46,-2.91 A 338.41,338.41 0 0 1 262,450 c 0,-186.67 151.33,-338 338,-338 186.67,0 338,151.33 338,338 z"
           transform="translate(-262,-112)"
           inkscape:connector-curvature="0"
           style="fill:#918a6f" />
        <path
           id="path1955"
           d="m 483.71,353.52 c -6.3805,35.997 7.7046,68.592 7.7046,68.592 0,0 24.43,-25.768 30.81,-61.766 6.38,-35.998 -7.7046,-68.592 -7.7046,-68.592 0,0 -24.43,25.768 -30.81,61.766 z"
           transform="translate(-262,-112)"
           inkscape:connector-curvature="0"
           style="opacity:0.2" />
        <g
           id="g1969"
           style="fill:#e9ddaf">
          <path
             id="path1957"
             d="m 541.35,782.93 q -3.045,-0.54 -6.08,-1.12 c -1.32,-38.31 -5.85,-116.94 -21.3,-199.29 -8.45,-45.07 -20.18,-91.27 -36.45,-132.57 a 412.6,412.6 0 0 0 -19.07,-41.84 c -16.44,-31.05 -36.38,-57.19 -60.56,-74.9 l 3.56,-4.86 q 30.165,22.11 54.22,62.08 7.215,11.97 13.86,25.54 7.125,14.52 13.59,30.83 4.125,10.38 7.97,21.48 16.74,48.195 28.46,109.98 2.5951,13.65 4.94,27.97 c 12.11,73.97 15.76,142.36 16.86,176.7 z"
             transform="translate(-262,-112)"
             inkscape:connector-curvature="0"
             style="opacity:0.2" />
          <path
             id="path1959"
             d="m 464.57,759.77 c -2.16,-0.94 -4.32,-1.91 -6.46,-2.91 -2.09,-22.7 -5.93,-50.86 -12.95,-77.59 a 254.56,254.56 0 0 0 -11.81,-35.2 c -8.01,-18.75 -18.38,-34.69 -31.79,-44.52 l 3.56,-4.85 c 14.04,10.28 24.87,26.53 33.24,45.54 9.43,21.42 15.72,46.35 19.91,70.17 3.11,17.69 5.07,34.78 6.3,49.36 z"
             transform="translate(-262,-112)"
             inkscape:connector-curvature="0"
             style="opacity:0.2" />
          <circle
             id="circle1961"
             r="30.089001"
             cy="190.98"
             cx="102.26"
             style="opacity:0.2" />
          <circle
             id="circle1963"
             r="30.089001"
             cy="449.98999"
             cx="111.95"
             style="opacity:0.2" />
          <path
             id="path1965"
             d="m 383.72,438.97 c 34.335,12.555 68.837,4.498 68.837,4.498 0,0 -21.166,-28.413 -55.501,-40.968 -34.335,-12.555 -68.837,-4.498 -68.837,-4.498 0,0 21.166,28.413 55.501,40.968 z"
             transform="translate(-262,-112)"
             inkscape:connector-curvature="0"
             style="opacity:0.2" />
          <path
             id="path1967"
             d="m 377.9,668.33 c 24.066,8.8001 48.283,3.0594 48.283,3.0594 0,0 -14.802,-20.008 -38.868,-28.808 -24.066,-8.8 -48.283,-3.0594 -48.283,-3.0594 0,0 14.802,20.008 38.868,28.808 z"
             transform="translate(-262,-112)"
             inkscape:connector-curvature="0"
             style="opacity:0.2" />
        </g>
        <g
           id="g1975"
           style="fill:#ffe6d5">
          <circle
             id="circle1971"
             r="131.77"
             cy="281.07999"
             cx="337.31" />
          <path
             id="path1973"
             d="m 547.83,493.97 c 0,0 16.471,78.239 16.471,86.474 0,8.235 78.239,45.296 78.239,45.296 l 70.003,-12.353 24.707,-74.121 c 0,0 -41.178,-61.767 -41.178,-86.474 z"
             transform="translate(-262,-112)"
             inkscape:connector-curvature="0" />
        </g>
        <path
           id="path1977"
           d="m 485.04,286.92 c 0,0 41.837,-90.646 122.02,-69.728 80.183,20.918 125.51,52.296 129,83.673 3.49,31.377 -1.7432,78.443 -1.7432,78.443 0,0 -8.716,-64.498 -64.498,-50.552 -55.782,13.946 -142.94,3.4864 -142.94,3.4864 l -13.946,125.51 c 0,0 -15.689,-22.661 -33.121,-8.7159 -17.432,13.9451 -50.552,-134.23 5.2296,-162.12 z"
           transform="translate(-262,-112)"
           inkscape:connector-curvature="0"
           style="fill:#e2dbe3" />
        <g
           id="g1983"
           style="fill:#2b2200">
          <path
             id="path1979"
             d="m 910.78,583.1 -1.12,2.58 A 338.56,338.56 0 0 1 541.35,782.93 q -3.045,-0.54 -6.08,-1.12 a 334.98,334.98 0 0 1 -61.14,-18.03 q -4.815,-1.935 -9.56,-4.01 c -2.16,-0.94 -4.32,-1.91 -6.46,-2.91 a 337.59,337.59 0 0 1 -55.25,-32.28 l -15.62,-45.31 8.78,-6.7 18.06,-13.79 19.27,-14.71 5.01,-3.83 81.19,-61.98 39.3,-30 0.01,-0.01 c 0,0 42.5,69.25 104.27,48.66 61.77,-20.59 60.42,-79.63 60.42,-79.63 z"
             transform="translate(-262,-112)"
             inkscape:connector-curvature="0" />
          <path
             id="path1981"
             d="m 474.13,763.78 q -4.815,-1.935 -9.56,-4.01 c -2.16,-0.94 -4.32,-1.91 -6.46,-2.91 a 338.84,338.84 0 0 1 -87.59,-58.7 c 9.19,-12.52 16.72,-18.89 16.72,-18.89 h 61.77 l 9.26,31.14 z"
             transform="translate(-262,-112)"
             inkscape:connector-curvature="0" />
        </g>
        <path
           id="path1985"
           d="m 856.67,576.32 52.99,9.36 a 337.94,337.94 0 0 1 -56.76,88.57 z"
           transform="translate(-262,-112)"
           inkscape:connector-curvature="0"
           style="fill-opacity:0" />
      </g>
      <g
         id="g2051"
         transform="matrix(0.99998741,0,0,0.99998741,1700.0043,-902.85284)">
        <path
           id="path2015"
           d="m 938,450 a 336.85,336.85 0 0 1 -27.22,133.1 l -1.12,2.58 A 338.56,338.56 0 0 1 541.35,782.93 q -3.045,-0.54 -6.08,-1.12 a 334.98,334.98 0 0 1 -61.14,-18.03 q -4.815,-1.935 -9.56,-4.01 c -2.16,-0.94 -4.32,-1.91 -6.46,-2.91 A 338.41,338.41 0 0 1 262,450 c 0,-186.67 151.33,-338 338,-338 186.67,0 338,151.33 338,338 z"
           transform="translate(-262,-112)"
           inkscape:connector-curvature="0"
           style="fill:#d7f4ee" />
        <path
           id="path2017"
           d="m 483.71,353.52 c -6.3805,35.997 7.7046,68.592 7.7046,68.592 0,0 24.43,-25.768 30.81,-61.766 6.38,-35.998 -7.7046,-68.592 -7.7046,-68.592 0,0 -24.43,25.768 -30.81,61.766 z"
           transform="translate(-262,-112)"
           inkscape:connector-curvature="0"
           style="opacity:0.2" />
        <g
           id="g2031"
           style="fill:#1c2422">
          <path
             id="path2019"
             d="m 541.35,782.93 q -3.045,-0.54 -6.08,-1.12 c -1.32,-38.31 -5.85,-116.94 -21.3,-199.29 -8.45,-45.07 -20.18,-91.27 -36.45,-132.57 a 412.6,412.6 0 0 0 -19.07,-41.84 c -16.44,-31.05 -36.38,-57.19 -60.56,-74.9 l 3.56,-4.86 q 30.165,22.11 54.22,62.08 7.215,11.97 13.86,25.54 7.125,14.52 13.59,30.83 4.125,10.38 7.97,21.48 16.74,48.195 28.46,109.98 2.5951,13.65 4.94,27.97 c 12.11,73.97 15.76,142.36 16.86,176.7 z"
             transform="translate(-262,-112)"
             inkscape:connector-curvature="0"
             style="opacity:0.2" />
          <path
             id="path2021"
             d="m 464.57,759.77 c -2.16,-0.94 -4.32,-1.91 -6.46,-2.91 -2.09,-22.7 -5.93,-50.86 -12.95,-77.59 a 254.56,254.56 0 0 0 -11.81,-35.2 c -8.01,-18.75 -18.38,-34.69 -31.79,-44.52 l 3.56,-4.85 c 14.04,10.28 24.87,26.53 33.24,45.54 9.43,21.42 15.72,46.35 19.91,70.17 3.11,17.69 5.07,34.78 6.3,49.36 z"
             transform="translate(-262,-112)"
             inkscape:connector-curvature="0"
             style="opacity:0.2" />
          <circle
             id="circle2023"
             r="30.089001"
             cy="190.98"
             cx="102.26"
             style="opacity:0.2" />
          <circle
             id="circle2025"
             r="30.089001"
             cy="449.98999"
             cx="111.95"
             style="opacity:0.2" />
          <path
             id="path2027"
             d="m 383.72,438.97 c 34.335,12.555 68.837,4.498 68.837,4.498 0,0 -21.166,-28.413 -55.501,-40.968 -34.335,-12.555 -68.837,-4.498 -68.837,-4.498 0,0 21.166,28.413 55.501,40.968 z"
             transform="translate(-262,-112)"
             inkscape:connector-curvature="0"
             style="opacity:0.2" />
          <path
             id="path2029"
             d="m 377.9,668.33 c 24.066,8.8001 48.283,3.0594 48.283,3.0594 0,0 -14.802,-20.008 -38.868,-28.808 -24.066,-8.8 -48.283,-3.0594 -48.283,-3.0594 0,0 14.802,20.008 38.868,28.808 z"
             transform="translate(-262,-112)"
             inkscape:connector-curvature="0"
             style="opacity:0.2" />
        </g>
        <g
           id="g2047">
          <g
             id="g2037"
             style="fill:#ce966f">
            <circle
               id="circle2033"
               r="131.77"
               cy="281.07999"
               cx="337.31" />
            <path
               id="path2035"
               d="m 547.83,493.97 c 0,0 16.471,78.239 16.471,86.474 0,8.235 78.239,45.296 78.239,45.296 l 70.003,-12.353 24.707,-74.121 c 0,0 -41.178,-61.767 -41.178,-86.474 z"
               transform="translate(-262,-112)"
               inkscape:connector-curvature="0" />
          </g>
          <path
             id="path2039"
             d="m 485.04,286.92 c 0,0 41.837,-90.646 122.02,-69.728 80.183,20.918 125.51,52.296 129,83.673 3.49,31.377 -1.7432,78.443 -1.7432,78.443 0,0 -8.716,-64.498 -64.498,-50.552 -55.782,13.946 -142.94,3.4864 -142.94,3.4864 l -13.946,125.51 c 0,0 -15.689,-22.661 -33.121,-8.7159 -17.432,13.9451 -50.552,-134.23 5.2296,-162.12 z"
             transform="translate(-262,-112)"
             inkscape:connector-curvature="0"
             style="fill:#24221c" />
          <g
             id="g2045"
             style="fill:#677821">
            <path
               id="path2041"
               d="m 910.78,583.1 -1.12,2.58 A 338.56,338.56 0 0 1 541.35,782.93 q -3.045,-0.54 -6.08,-1.12 a 334.98,334.98 0 0 1 -61.14,-18.03 q -4.815,-1.935 -9.56,-4.01 c -2.16,-0.94 -4.32,-1.91 -6.46,-2.91 a 337.59,337.59 0 0 1 -55.25,-32.28 l -15.62,-45.31 8.78,-6.7 18.06,-13.79 19.27,-14.71 5.01,-3.83 81.19,-61.98 39.3,-30 0.01,-0.01 c 0,0 42.5,69.25 104.27,48.66 61.77,-20.59 60.42,-79.63 60.42,-79.63 z"
               transform="translate(-262,-112)"
               inkscape:connector-curvature="0" />
            <path
               id="path2043"
               d="m 474.13,763.78 q -4.815,-1.935 -9.56,-4.01 c -2.16,-0.94 -4.32,-1.91 -6.46,-2.91 a 338.84,338.84 0 0 1 -87.59,-58.7 c 9.19,-12.52 16.72,-18.89 16.72,-18.89 h 61.77 l 9.26,31.14 z"
               transform="translate(-262,-112)"
               inkscape:connector-curvature="0" />
          </g>
        </g>
        <path
           id="path2049"
           d="m 856.67,576.32 52.99,9.36 a 337.94,337.94 0 0 1 -56.76,88.57 z"
           transform="translate(-262,-112)"
           inkscape:connector-curvature="0"
           style="fill-opacity:0" />
      </g>
    </g>
  </g>
</svg>
