<?xml version="1.0" encoding="UTF-8"?>
<!-- Created with Inkscape (http://www.inkscape.org/) -->
<svg width="181mm" height="180mm" version="1.1" viewBox="0 0 181 180" xmlns="http://www.w3.org/2000/svg" xmlns:cc="http://creativecommons.org/ns#" xmlns:dc="http://purl.org/dc/elements/1.1/" xmlns:rdf="http://www.w3.org/1999/02/22-rdf-syntax-ns#">
 <metadata>
  <rdf:RDF>
   <cc:Work rdf:about="">
    <dc:format>image/svg+xml</dc:format>
    <dc:type rdf:resource="http://purl.org/dc/dcmitype/StillImage"/>
    <dc:title/>
   </cc:Work>
  </rdf:RDF>
 </metadata>
 <g transform="translate(0,-117)">
  <g transform="matrix(.26458 0 0 .26458 17.916 32.19)">
   <g transform="translate(-1242.9 -102.86)">
    <path d="m616 658a336.85 336.85 0 0 1-27.22 133.1l-1.12 2.58a338.56 338.56 0 0 1-368.31 197.25q-3.045-0.54-6.08-1.12a334.98 334.98 0 0 1-61.14-18.03q-4.815-1.935-9.56-4.01c-2.16-0.94-4.32-1.91-6.46-2.91a338.41 338.41 0 0 1-196.11-306.86c0-186.67 151.33-338 338-338s338 151.33 338 338z" fill="#668000"/>
    <g transform="translate(-60 320)" fill="#e3dedb">
     <path transform="translate(-262,-112)" d="m541.35 782.93q-3.045-0.54-6.08-1.12c-1.32-38.31-5.85-116.94-21.3-199.29-8.45-45.07-20.18-91.27-36.45-132.57a412.6 412.6 0 0 0-19.07-41.84c-16.44-31.05-36.38-57.19-60.56-74.9l3.56-4.86q30.165 22.11 54.22 62.08 7.215 11.97 13.86 25.54 7.125 14.52 13.59 30.83 4.125 10.38 7.97 21.48 16.74 48.195 28.46 109.98 2.5951 13.65 4.94 27.97c12.11 73.97 15.76 142.36 16.86 176.7z" opacity=".2"/>
     <path transform="translate(-262,-112)" d="m464.57 759.77c-2.16-0.94-4.32-1.91-6.46-2.91-2.09-22.7-5.93-50.86-12.95-77.59a254.56 254.56 0 0 0-11.81-35.2c-8.01-18.75-18.38-34.69-31.79-44.52l3.56-4.85c14.04 10.28 24.87 26.53 33.24 45.54 9.43 21.42 15.72 46.35 19.91 70.17 3.11 17.69 5.07 34.78 6.3 49.36z" opacity=".2"/>
     <circle cx="102.26" cy="190.98" r="30.089" opacity=".2"/>
     <circle cx="111.95" cy="449.99" r="30.089" opacity=".2"/>
     <path transform="translate(-262,-112)" d="m383.72 438.97c34.335 12.555 68.837 4.498 68.837 4.498s-21.166-28.413-55.501-40.968-68.837-4.498-68.837-4.498 21.166 28.413 55.501 40.968z" opacity=".2"/>
     <path transform="translate(-262,-112)" d="m377.9 668.33c24.066 8.8001 48.283 3.0594 48.283 3.0594s-14.802-20.008-38.868-28.808-48.283-3.0594-48.283-3.0594 14.802 20.008 38.868 28.808z" opacity=".2"/>
    </g>
    <g>
     <g transform="translate(-60 320)" fill="#faceaf">
      <circle cx="337.31" cy="281.08" r="131.77"/>
      <path transform="translate(-262,-112)" d="m547.83 493.97s16.471 78.239 16.471 86.474 78.239 45.296 78.239 45.296l70.003-12.353 24.707-74.121s-41.178-61.767-41.178-86.474z"/>
     </g>
     <path d="m163.04 494.92s41.837-90.646 122.02-69.728 125.51 52.296 129 83.673-1.7432 78.443-1.7432 78.443-8.716-64.498-64.498-50.552-142.94 3.4864-142.94 3.4864l-13.946 125.51s-15.689-22.661-33.121-8.7159-50.552-134.23 5.2296-162.12z" fill="#c87137"/>
     <g transform="translate(-60 320)" fill="#aca793">
      <path transform="translate(-262,-112)" d="m910.78 583.1-1.12 2.58a338.56 338.56 0 0 1-368.31 197.25q-3.045-0.54-6.08-1.12a334.98 334.98 0 0 1-61.14-18.03q-4.815-1.935-9.56-4.01c-2.16-0.94-4.32-1.91-6.46-2.91a337.59 337.59 0 0 1-55.25-32.28l-15.62-45.31 8.78-6.7 18.06-13.79 19.27-14.71 5.01-3.83 81.19-61.98 39.3-30 0.01-0.01s42.5 69.25 104.27 48.66 60.42-79.63 60.42-79.63z"/>
      <path transform="translate(-262,-112)" d="m474.13 763.78q-4.815-1.935-9.56-4.01c-2.16-0.94-4.32-1.91-6.46-2.91a338.84 338.84 0 0 1-87.59-58.7c9.19-12.52 16.72-18.89 16.72-18.89h61.77l9.26 31.14z"/>
     </g>
    </g>
   </g>
   <path d="m534.67 784.32 52.99 9.36a337.94 337.94 0 0 1-56.76 88.57z" fill-opacity="0"/>
   <g transform="matrix(.99999 0 0 .99999 -59.993 326.01)">
    <path transform="translate(-262,-112)" d="m938 450a336.85 336.85 0 0 1-27.22 133.1l-1.12 2.58a338.56 338.56 0 0 1-368.31 197.25q-3.045-0.54-6.08-1.12a334.98 334.98 0 0 1-61.14-18.03q-4.815-1.935-9.56-4.01c-2.16-0.94-4.32-1.91-6.46-2.91a338.41 338.41 0 0 1-196.11-306.86c0-186.67 151.33-338 338-338s338 151.33 338 338z" fill="#918a6f"/>
    <path transform="translate(-262,-112)" d="m483.71 353.52c-6.3805 35.997 7.7046 68.592 7.7046 68.592s24.43-25.768 30.81-61.766-7.7046-68.592-7.7046-68.592-24.43 25.768-30.81 61.766z" opacity=".2"/>
    <g fill="#e9ddaf">
     <path transform="translate(-262,-112)" d="m541.35 782.93q-3.045-0.54-6.08-1.12c-1.32-38.31-5.85-116.94-21.3-199.29-8.45-45.07-20.18-91.27-36.45-132.57a412.6 412.6 0 0 0-19.07-41.84c-16.44-31.05-36.38-57.19-60.56-74.9l3.56-4.86q30.165 22.11 54.22 62.08 7.215 11.97 13.86 25.54 7.125 14.52 13.59 30.83 4.125 10.38 7.97 21.48 16.74 48.195 28.46 109.98 2.5951 13.65 4.94 27.97c12.11 73.97 15.76 142.36 16.86 176.7z" opacity=".2"/>
     <path transform="translate(-262,-112)" d="m464.57 759.77c-2.16-0.94-4.32-1.91-6.46-2.91-2.09-22.7-5.93-50.86-12.95-77.59a254.56 254.56 0 0 0-11.81-35.2c-8.01-18.75-18.38-34.69-31.79-44.52l3.56-4.85c14.04 10.28 24.87 26.53 33.24 45.54 9.43 21.42 15.72 46.35 19.91 70.17 3.11 17.69 5.07 34.78 6.3 49.36z" opacity=".2"/>
     <circle cx="102.26" cy="190.98" r="30.089" opacity=".2"/>
     <circle cx="111.95" cy="449.99" r="30.089" opacity=".2"/>
     <path transform="translate(-262,-112)" d="m383.72 438.97c34.335 12.555 68.837 4.498 68.837 4.498s-21.166-28.413-55.501-40.968-68.837-4.498-68.837-4.498 21.166 28.413 55.501 40.968z" opacity=".2"/>
     <path transform="translate(-262,-112)" d="m377.9 668.33c24.066 8.8001 48.283 3.0594 48.283 3.0594s-14.802-20.008-38.868-28.808-48.283-3.0594-48.283-3.0594 14.802 20.008 38.868 28.808z" opacity=".2"/>
    </g>
    <g fill="#ffe6d5">
     <circle cx="337.31" cy="281.08" r="131.77"/>
     <path transform="translate(-262,-112)" d="m547.83 493.97s16.471 78.239 16.471 86.474 78.239 45.296 78.239 45.296l70.003-12.353 24.707-74.121s-41.178-61.767-41.178-86.474z"/>
    </g>
    <path transform="translate(-262,-112)" d="m485.04 286.92s41.837-90.646 122.02-69.728 125.51 52.296 129 83.673-1.7432 78.443-1.7432 78.443-8.716-64.498-64.498-50.552-142.94 3.4864-142.94 3.4864l-13.946 125.51s-15.689-22.661-33.121-8.7159-50.552-134.23 5.2296-162.12z" fill="#e2dbe3"/>
    <g fill="#2b2200">
     <path transform="translate(-262,-112)" d="m910.78 583.1-1.12 2.58a338.56 338.56 0 0 1-368.31 197.25q-3.045-0.54-6.08-1.12a334.98 334.98 0 0 1-61.14-18.03q-4.815-1.935-9.56-4.01c-2.16-0.94-4.32-1.91-6.46-2.91a337.59 337.59 0 0 1-55.25-32.28l-15.62-45.31 8.78-6.7 18.06-13.79 19.27-14.71 5.01-3.83 81.19-61.98 39.3-30 0.01-0.01s42.5 69.25 104.27 48.66 60.42-79.63 60.42-79.63z"/>
     <path transform="translate(-262,-112)" d="m474.13 763.78q-4.815-1.935-9.56-4.01c-2.16-0.94-4.32-1.91-6.46-2.91a338.84 338.84 0 0 1-87.59-58.7c9.19-12.52 16.72-18.89 16.72-18.89h61.77l9.26 31.14z"/>
    </g>
    <path transform="translate(-262,-112)" d="m856.67 576.32 52.99 9.36a337.94 337.94 0 0 1-56.76 88.57z" fill-opacity="0"/>
   </g>
  </g>
 </g>
</svg>
