<?xml version="1.0" encoding="UTF-8" standalone="no"?>
<svg
   xmlns:dc="http://purl.org/dc/elements/1.1/"
   xmlns:cc="http://creativecommons.org/ns#"
   xmlns:rdf="http://www.w3.org/1999/02/22-rdf-syntax-ns#"
   xmlns:svg="http://www.w3.org/2000/svg"
   xmlns="http://www.w3.org/2000/svg"
   xmlns:sodipodi="http://sodipodi.sourceforge.net/DTD/sodipodi-0.dtd"
   xmlns:inkscape="http://www.inkscape.org/namespaces/inkscape"
   id="a7392f4d-d9c5-45f6-93eb-194822c796f3"
   data-name="Layer 1"
   width="550"
   height="488.5"
   viewBox="0 0 550 488.5"
   version="1.1"
   sodipodi:docname="undraw_Airport_re_oqk1.svg"
   inkscape:version="0.92.4 (5da689c313, 2019-01-14)">
  <metadata
     id="metadata983">
    <rdf:RDF>
      <cc:Work
         rdf:about="">
        <dc:format>image/svg+xml</dc:format>
        <dc:type
           rdf:resource="http://purl.org/dc/dcmitype/StillImage" />
      </cc:Work>
    </rdf:RDF>
  </metadata>
  <defs
     id="defs981" />
  <sodipodi:namedview
     pagecolor="#ffffff"
     bordercolor="#666666"
     borderopacity="1"
     objecttolerance="10"
     gridtolerance="10"
     guidetolerance="10"
     inkscape:pageopacity="0"
     inkscape:pageshadow="2"
     inkscape:window-width="1920"
     inkscape:window-height="1017"
     id="namedview979"
     showgrid="false"
     inkscape:zoom="1.7359263"
     inkscape:cx="275"
     inkscape:cy="313.37736"
     inkscape:window-x="-8"
     inkscape:window-y="-8"
     inkscape:window-maximized="1"
     inkscape:current-layer="a7392f4d-d9c5-45f6-93eb-194822c796f3" />
  <path
     d="M597.24805,467.75H431.5a16.51868,16.51868,0,0,1-16.5-16.5v-86a16.51868,16.51868,0,0,1,16.5-16.5H597.24805a16.51868,16.51868,0,0,1,16.5,16.5v86A16.51868,16.51868,0,0,1,597.24805,467.75Z"
     transform="translate(-325 -205.75)"
     fill="#f2f2f2"
     id="path900" />
  <path
     d="M815.5,467.75H649.752a16.51868,16.51868,0,0,1-16.5-16.5v-86a16.51868,16.51868,0,0,1,16.5-16.5H815.5a16.51868,16.51868,0,0,1,16.5,16.5v86A16.51868,16.51868,0,0,1,815.5,467.75Z"
     transform="translate(-325 -205.75)"
     fill="#f2f2f2"
     id="path902" />
  <path
     d="M613.74805,610.75H415V501.25a16.51868,16.51868,0,0,1,16.5-16.5H597.24805a16.51868,16.51868,0,0,1,16.5,16.5Z"
     transform="translate(-325 -205.75)"
     fill="#f2f2f2"
     id="path904" />
  <path
     d="M832,610.75H633.252V501.25a16.51868,16.51868,0,0,1,16.5-16.5H815.5a16.51868,16.51868,0,0,1,16.5,16.5Z"
     transform="translate(-325 -205.75)"
     fill="#f2f2f2"
     id="path906" />
  <path
     d="M815.5,331.75H649.752a16.51868,16.51868,0,0,1-16.5-16.5v-93a16.51868,16.51868,0,0,1,16.5-16.5H815.5a16.51868,16.51868,0,0,1,16.5,16.5v93A16.51868,16.51868,0,0,1,815.5,331.75Z"
     transform="translate(-325 -205.75)"
     fill="#f2f2f2"
     id="path908" />
  <path
     d="M597.24805,331.75H431.5a16.51868,16.51868,0,0,1-16.5-16.5v-93a16.51868,16.51868,0,0,1,16.5-16.5H597.24805a16.51868,16.51868,0,0,1,16.5,16.5v93A16.51868,16.51868,0,0,1,597.24805,331.75Z"
     transform="translate(-325 -205.75)"
     fill="#f2f2f2"
     id="path910" />
  <path
     d="M826.5,615.75h-402a9.5,9.5,0,0,1,0-19h402a9.5,9.5,0,0,1,0,19Z"
     transform="translate(-325 -205.75)"
     fill="#ccc"
     id="path912" />
  <path
     d="M608,605.75H444v-38a82,82,0,0,1,164,0Z"
     transform="translate(-325 -205.75)"
     fill="#ccc"
     id="path914" />
  <path
     d="M804,605.75H640v-38a82,82,0,0,1,164,0Z"
     transform="translate(-325 -205.75)"
     fill="#ccc"
     id="path916" />
  <rect
     x="714.5"
     y="609.25"
     width="13"
     height="84"
     transform="translate(1117 1096.75) rotate(-180)"
     fill="#ccc"
     id="rect918" />
  <path
     d="M677.5,692.79331c0,1.40463,19.69947.5433,44,.5433s44,.86133,44-.5433S745.80053,680.25,721.5,680.25,677.5,691.38868,677.5,692.79331Z"
     transform="translate(-325 -205.75)"
     fill="#ccc"
     id="path920" />
  <rect
     x="518.5"
     y="609.25"
     width="13"
     height="84"
     transform="translate(725 1096.75) rotate(-180)"
     fill="#ccc"
     id="rect922" />
  <path
     d="M481.5,692.79331c0,1.40463,19.69947.5433,44,.5433s44,.86133,44-.5433S549.80053,680.25,525.5,680.25,481.5,691.38868,481.5,692.79331Z"
     transform="translate(-325 -205.75)"
     fill="#ccc"
     id="path924" />
  <polygon
     points="258.428 476.049 270.688 476.049 276.52 428.761 258.426 428.761 258.428 476.049"
     fill="#a0616a"
     id="polygon926"
     style="fill:#ffccaa" />
  <path
     d="M580.80118,678.29551H619.3319a0,0,0,0,1,0,0v14.88687a0,0,0,0,1,0,0H595.68806a14.88688,14.88688,0,0,1-14.88688-14.88688v0A0,0,0,0,1,580.80118,678.29551Z"
     transform="translate(875.16438 1165.70051) rotate(179.99738)"
     fill="#2f2e41"
     id="path928"
     style="fill:#000000" />
  <polygon
     points="277.566 469.207 289.263 465.536 280.671 418.671 263.407 424.088 277.566 469.207"
     fill="#a0616a"
     id="polygon930"
     style="fill:#ffccaa" />
  <path
     d="M600.35517,666.29114h38.53072a0,0,0,0,1,0,0V681.178a0,0,0,0,1,0,0H615.242a14.88686,14.88686,0,0,1-14.88686-14.88686v0A0,0,0,0,1,600.35517,666.29114Z"
     transform="translate(1087.54217 925.28442) rotate(162.57738)"
     fill="#2f2e41"
     id="path932"
     style="fill:#000000" />
  <path
     d="M594.36386,653.19171l-22.42725-58.87109c-5.03149,1.18164-47.22656,10.51855-61.35888-4.52832-4.84327-5.15723-5.78785-12.62891-2.80762-22.208L516.01767,557.22l.25634.01367c3.11841.16406,76.43531,4.27344,81.46119,26.38867,4.23754,18.64454,11.97656,53.40528,14.24731,63.61524a4.51573,4.51573,0,0,1-2.814,5.18359l-9.01929,3.38184a4.46228,4.46228,0,0,1-1.572.28613A4.51293,4.51293,0,0,1,594.36386,653.19171Z"
     transform="translate(-325 -205.75)"
     fill="#2f2e41"
     id="path934"
     style="fill:#000000" />
  <path
     d="M581.36386,660.19171l-22.42725-58.87109c-5.03174,1.18164-47.22656,10.51757-61.35888-4.52832-4.84327-5.15723-5.78785-12.62891-2.80762-22.208L503.01767,564.22l.25634.01367c3.11841.16406,76.43531,4.27344,81.46119,26.38867,4.23754,18.64454,11.97656,53.40528,14.24731,63.61524a4.51573,4.51573,0,0,1-2.814,5.18359l-9.01929,3.38184a4.46228,4.46228,0,0,1-1.572.28613A4.51293,4.51293,0,0,1,581.36386,660.19171Z"
     transform="translate(-325 -205.75)"
     fill="#2f2e41"
     id="path936"
     style="fill:#000000" />
  <path
     d="M561.19033,545.97389a19.19641,19.19641,0,0,1-16.4845-9.37159l-7.12256-12.06591,16.92933-9.25293,7.18835,9.856,48.77356-5.13867a10.56012,10.56012,0,0,1,.79919-1.23389h0a11.0157,11.0157,0,0,1,7.8733-4.314,10.89328,10.89328,0,0,1,8.49267,3.01221,11.02274,11.02274,0,0,1,1.85986,13.56347,11.00367,11.00367,0,0,1-16.1134,3.15088,10.39918,10.39918,0,0,1-.82287-.70019l-46.7146,11.91064A18.83682,18.83682,0,0,1,561.19033,545.97389Z"
     transform="translate(-325 -205.75)"
     fill="#a0616a"
     id="path938"
     style="fill:#ffccaa" />
  <path
     d="M494.453,577.69269a4.50692,4.50692,0,0,1-1.8186-4.34864c2.78247-18.34277-.41895-44.61914-3.59473-63.43261A24.79543,24.79543,0,0,1,516.599,481.14972a79.86445,79.86445,0,0,1,9.91284,1.9541h0a24.59626,24.59626,0,0,1,18.582,24.46777c-.47485,18.1543,3.21142,40.80567,4.81836,49.70117a4.51862,4.51862,0,0,1-.83374,3.51075,4.39229,4.39229,0,0,1-3.09546,1.75c-17.80811,1.81738-37.01221,10.50195-46.87451,15.5166a4.50061,4.50061,0,0,1-2.04956.501A4.42883,4.42883,0,0,1,494.453,577.69269Z"
     transform="translate(-325 -205.75)"
     fill="#6c63ff"
     id="path940"
     style="fill:#aa0000" />
  <path
     d="M542.52377,530.38116a4.47083,4.47083,0,0,1-2.47363-2.39746l-9.9314-22.94238a11.49973,11.49973,0,1,1,21.10718-9.13574l9.93164,22.94238a4.5057,4.5057,0,0,1-2.342,5.917l-12.8479,5.56153a4.46857,4.46857,0,0,1-3.44385.05468Z"
     transform="translate(-325 -205.75)"
     fill="#6c63ff"
     id="path942"
     style="fill:#aa0000" />
  <circle
     cx="189.77127"
     cy="243.03391"
     r="24.56103"
     fill="#a0616a"
     id="circle944"
     style="fill:#ffccaa" />
  <path
     d="M499.92852,470.60459a3.97443,3.97443,0,0,1-5.69016.32691,44.42586,44.42586,0,0,1-12.67228-16.54878c-3.19306-7.611-3.661-16.899-.027-24.03305,3.072-6.03078,8.58662-9.86968,14.09195-13.00723a22.99349,22.99349,0,0,1,6.84781-2.89429,8.99361,8.99361,0,0,1,7.154,1.40678,7.54423,7.54423,0,0,1,2.878,7.22723,22.35408,22.35408,0,0,1,9.80208-7.35654,11.36522,11.36522,0,0,1,7.55375-.50594c3.53554,1.18009,6.15253,4.75026,7.60882,8.58606a19.14076,19.14076,0,0,1,1.25546,9.26373,11.12855,11.12855,0,0,1-4.2691,7.67142c-2.88387,1.98989-6.59927,1.78779-9.95313.90708s-6.60888-2.37392-10.02126-2.79024-7.19423.4863-9.22732,3.52991c-1.43176,2.14338-1.7693,4.96687-2.06144,7.65827l-1.51947,13.99864a18.54788,18.54788,0,0,1-1.27762,5.83956A3.25084,3.25084,0,0,1,499.92852,470.60459Z"
     transform="translate(-325 -205.75)"
     fill="#2f2e41"
     id="path946"
     style="fill:#784421" />
  <path
     d="M552.431,571.61988a11.01884,11.01884,0,0,1-6.53393-6.15772,10.25849,10.25849,0,0,1-.35913-1.019l-52.322-14.89307a10.88006,10.88006,0,0,1-7.86109-10.34277l-.12768-20.20166,19.28588.51611,1.25684,12.13428,44.74072,20.08691a10.56863,10.56863,0,0,1,1.31153-.66455h.00024a11.01,11.01,0,1,1,.60864,20.54151Z"
     transform="translate(-325 -205.75)"
     fill="#a0616a"
     id="path948"
     style="fill:#ffccaa" />
  <path
     d="M485.52714,527.87432a4.47084,4.47084,0,0,1-1.11986-3.2577l1.534-24.9526a11.49972,11.49972,0,1,1,22.956,1.41236l-1.53376,24.95272a4.50569,4.50569,0,0,1-4.76751,4.21506l-13.97358-.85915a4.46863,4.46863,0,0,1-3.09531-1.51069Z"
     transform="translate(-325 -205.75)"
     fill="#6c63ff"
     id="path950"
     style="fill:#aa0000" />
  <path
     d="M622.06783,540.25H607.93217a1.8178,1.8178,0,0,1-1.81577-1.64688l-2.82949-29.00177h23.42618l-2.82949,29.00141A1.81783,1.81783,0,0,1,622.06783,540.25Z"
     transform="translate(-325 -205.75)"
     fill="#6c63ff"
     id="path952"
     style="fill:#cccccc;fill-opacity:1" />
  <path
     d="M626.67568,513.25H603.32432A1.82647,1.82647,0,0,1,601.5,511.42568V507.0473a1.82647,1.82647,0,0,1,1.82432-1.82433h23.35136A1.82647,1.82647,0,0,1,628.5,507.0473v4.37838A1.82647,1.82647,0,0,1,626.67568,513.25Z"
     transform="translate(-325 -205.75)"
     fill="#3f3d56"
     id="path954" />
  <path
     d="M874,694.25H326a1,1,0,0,1,0-2H874a1,1,0,0,1,0,2Z"
     transform="translate(-325 -205.75)"
     fill="#ccc"
     id="path970" />
  <path
     d="M763.5,293.25a14.9415,14.9415,0,0,0-10.95557,4.77753A10.98511,10.98511,0,0,0,737.5,308.25h41A15,15,0,0,0,763.5,293.25Z"
     transform="translate(-325 -205.75)"
     fill="#fff"
     id="path972" />
  <path
     d="M543.5,244.25a14.9415,14.9415,0,0,0-10.95557,4.77753A10.98511,10.98511,0,0,0,517.5,259.25h41A15,15,0,0,0,543.5,244.25Z"
     transform="translate(-325 -205.75)"
     fill="#fff"
     id="path974" />
  <path
     d="M475.5,375.25a14.9415,14.9415,0,0,0-10.95557,4.77753A10.98511,10.98511,0,0,0,449.5,390.25h41A15,15,0,0,0,475.5,375.25Z"
     transform="translate(-325 -205.75)"
     fill="#fff"
     id="path976" />
  <path
     id="path985"
     d="m 465.57488,218.26592 a 14.9415,14.9415 0 0 0 -10.95557,4.77753 10.98511,10.98511 0 0 0 -15.04443,10.22247 h 41 a 15,15 0 0 0 -15,-15 z"
     inkscape:connector-curvature="0"
     style="fill:#ffffff" />
  <path
     style="fill:#ffffff"
     inkscape:connector-curvature="0"
     d="m 437.34788,225.75472 a 14.9415,14.9415 0 0 0 -10.95557,4.77753 10.98511,10.98511 0 0 0 -15.04443,10.22247 h 41 a 15,15 0 0 0 -15,-15 z"
     id="path987" />
</svg>
