<?xml version="1.0" encoding="UTF-8" standalone="no"?>
<svg
   xmlns:dc="http://purl.org/dc/elements/1.1/"
   xmlns:cc="http://creativecommons.org/ns#"
   xmlns:rdf="http://www.w3.org/1999/02/22-rdf-syntax-ns#"
   xmlns:svg="http://www.w3.org/2000/svg"
   xmlns="http://www.w3.org/2000/svg"
   xmlns:sodipodi="http://sodipodi.sourceforge.net/DTD/sodipodi-0.dtd"
   xmlns:inkscape="http://www.inkscape.org/namespaces/inkscape"
   id="e4fde902-34f0-42ac-83bb-70aac2088463"
   data-name="Layer 1"
   width="458.4184"
   height="292.77533"
   viewBox="0 0 458.41839 292.77534"
   version="1.1"
   sodipodi:docname="reportes.svg"
   inkscape:version="0.92.4 (5da689c313, 2019-01-14)">
  <metadata
     id="metadata1960">
    <rdf:RDF>
      <cc:Work
         rdf:about="">
        <dc:format>image/svg+xml</dc:format>
        <dc:type
           rdf:resource="http://purl.org/dc/dcmitype/StillImage" />
        <dc:title></dc:title>
      </cc:Work>
    </rdf:RDF>
  </metadata>
  <defs
     id="defs1958" />
  <sodipodi:namedview
     pagecolor="#ffffff"
     bordercolor="#666666"
     borderopacity="1"
     objecttolerance="10"
     gridtolerance="10"
     guidetolerance="10"
     inkscape:pageopacity="0"
     inkscape:pageshadow="2"
     inkscape:window-width="1920"
     inkscape:window-height="1017"
     id="namedview1956"
     showgrid="false"
     inkscape:zoom="0.77278825"
     inkscape:cx="535.43426"
     inkscape:cy="338.60196"
     inkscape:window-x="-8"
     inkscape:window-y="-8"
     inkscape:window-maximized="1"
     inkscape:current-layer="e4fde902-34f0-42ac-83bb-70aac2088463" />
  <g
     id="g2623"
     transform="matrix(0.83619174,0,0,0.83619174,-182.41592,1.1015048)">
    <path
       id="path2529"
       transform="translate(-217.08037,-181.61165)"
       d="M 975.74765,531.16211 H 445.25318 a 7.18,7.18 0 0 1 -7.172,-7.172 V 195.42 h 544.83845 v 328.57013 a 7.18,7.18 0 0 1 -7.17198,7.17198 z"
       inkscape:connector-curvature="0"
       style="fill:#e6e6e6" />
    <path
       id="path2531"
       transform="translate(-217.08037,-181.61165)"
       d="M 960.19238,510.62891 H 460.80859 a 7.258,7.258 0 0 1 -7.25,-7.25 V 232.78955 a 7.25835,7.25835 0 0 1 7.25,-7.25 h 499.38379 a 7.258,7.258 0 0 1 7.25,7.25 v 270.58936 a 7.25772,7.25772 0 0 1 -7.25,7.25 z"
       inkscape:connector-curvature="0"
       style="fill:#ffffff" />
    <path
       id="path2533"
       transform="translate(-217.08037,-181.61165)"
       d="M 982.68727,205.56618 H 437.849 v -16.78255 a 7.18,7.18 0 0 1 7.172,-7.172 h 530.49429 a 7.18,7.18 0 0 1 7.172,7.172 z"
       inkscape:connector-curvature="0"
       style="fill:#6c63ff" />
    <circle
       id="circle2535"
       r="4.2834201"
       cy="12.23725"
       cx="238.36469"
       style="fill:#ffffff" />
    <circle
       id="circle2537"
       r="4.2834201"
       cy="12.23725"
       cx="254.62349"
       style="fill:#ffffff" />
    <circle
       id="circle2539"
       r="4.2834201"
       cy="12.23725"
       cx="270.88229"
       style="fill:#ffffff" />
    <rect
       id="rect2541"
       height="22.78159"
       width="51.469509"
       y="92.449013"
       x="287.80316"
       style="fill:#e6e6e6" />
    <rect
       id="rect2543"
       height="22.78159"
       width="51.469509"
       y="139.69972"
       x="390.74216"
       style="fill:#e6e6e6" />
    <rect
       id="rect2545"
       height="22.781601"
       width="51.469509"
       y="210.57578"
       x="287.80316"
       style="fill:#6c63ff" />
    <rect
       id="rect2547"
       height="22.78159"
       width="51.469509"
       y="257.82645"
       x="390.74216"
       style="fill:#6c63ff" />
    <rect
       id="rect2549"
       height="22.78159"
       width="51.469509"
       y="281.45181"
       x="647.24597"
       style="fill:#6c63ff" />
    <rect
       id="rect2551"
       height="22.78159"
       width="51.469509"
       y="186.95042"
       x="595.77649"
       style="fill:#e6e6e6" />
    <rect
       id="rect2553"
       height="22.78159"
       width="102.93903"
       y="186.95042"
       x="442.2117"
       style="fill:#6c63ff" />
    <rect
       id="rect2555"
       height="22.78159"
       width="102.93903"
       y="67.979897"
       x="442.2117"
       style="fill:#6c63ff" />
    <path
       id="path2557"
       transform="translate(-217.08037,-181.61165)"
       d="m 453.414,225.12244 v 286.03548 h 514.69518 v -286.0355 z m 513.00764,23.6958 H 916.80858 V 226.81 h 49.61307 z M 660.30477,414.6876 v -22.00786 h 100.91362 v 22.00786 z m 100.91367,1.68753 V 438.3834 H 660.30472 v -22.00827 z m 0,-94.78239 v 22.00787 H 660.30472 v -22.00787 z m -100.91367,-1.68752 v -22.00828 h 100.91362 v 22.00828 z m 0,47.39119 v -22.00828 h 100.91362 v 22.00828 z m 100.91367,1.68752 v 22.00828 H 660.30472 V 368.98393 Z M 658.61725,343.60061 h -49.61307 v -22.00787 h 49.61307 z m 0,1.68752 v 22.00828 h -49.61307 v -22.00828 z m 0,23.6958 v 22.00828 h -49.61307 v -22.00828 z m 0,23.69581 v 22.00786 h -49.61307 v -22.00786 z m 104.28872,0 H 812.519 v 22.00786 h -49.613 z m 0,-1.68753 V 368.98393 H 812.519 v 22.00828 z m 0,-23.6958 V 345.28813 H 812.519 v 22.00828 z m 0,-23.6958 V 321.59274 H 812.519 v 22.00787 z m 0,-23.69539 V 297.89694 H 812.519 v 22.00828 z m 0,-23.6958 V 274.20114 H 812.519 v 22.00828 z m -1.68753,0 H 660.30472 v -22.00828 h 100.91367 z m -102.60119,0 h -49.61307 v -22.00828 h 49.61307 z m 0,1.68752 v 22.00828 h -49.61307 v -22.00828 z m -51.3006,22.00828 H 557.7027 v -22.00828 h 49.6139 z m 0,1.68752 v 22.00787 H 557.7027 v -22.00787 z m 0,23.69539 v 22.00828 H 557.7027 v -22.00828 z m 0,23.6958 v 22.00828 H 557.7027 v -22.00828 z m 0,23.69581 V 414.6876 H 557.7027 v -22.00786 z m 0,23.69539 V 438.3834 H 557.7027 v -22.00827 z m 1.68753,0 h 49.61307 v 22.00827 h -49.61307 z m 49.61307,23.6958 v 22.00786 h -49.61307 v -22.00786 z m 1.68752,0 h 100.91362 v 22.00786 H 660.30472 Z m 102.6012,0 H 812.519 v 22.00786 h -49.613 z m 0,-1.68753 V 416.37513 H 812.519 v 22.00827 z m 51.30059,-22.00827 h 49.6139 v 22.00827 h -49.614 z m 0,-1.68753 v -22.00786 h 49.6139 v 22.00786 z m 0,-23.69539 v -22.00828 h 49.6139 v 22.00828 z m 0,-23.6958 v -22.00828 h 49.6139 v 22.00828 z m 0,-23.6958 v -22.00787 h 49.6139 v 22.00787 z m 0,-23.69539 v -22.00828 h 49.6139 v 22.00828 z m 0,-23.6958 v -22.00828 h 49.6139 v 22.00828 z m 0,-23.6958 v -22.00787 h 49.6139 v 22.00787 z m -1.68752,0 H 762.906 v -22.00787 h 49.613 z m -51.3006,0 H 660.30472 v -22.00787 h 100.91367 z m -102.60119,0 h -49.61307 v -22.00787 h 49.61307 z m -51.3006,0 H 557.7027 v -22.00787 h 49.6139 z m 0,1.68752 v 22.00828 H 557.7027 v -22.00828 z m -51.30142,22.00828 h -49.61307 v -22.00828 h 49.61307 z m 0,1.68752 v 22.00828 h -49.61307 v -22.00828 z m 0,23.6958 v 22.00787 h -49.61307 v -22.00787 z m 0,23.69539 v 22.00828 h -49.61307 v -22.00828 z m 0,23.6958 v 22.00828 h -49.61307 v -22.00828 z m 0,23.69581 v 22.00786 h -49.61307 v -22.00786 z m 0,23.69539 v 22.00827 h -49.61307 v -22.00827 z m 0,23.6958 v 22.00786 h -49.61307 v -22.00786 z m 1.68752,0 h 49.6139 v 22.00786 H 557.7027 Z m 49.6139,23.69539 V 485.775 H 557.7027 v -22.00868 z m 1.68753,0 h 49.61307 V 485.775 h -49.61307 z m 51.30059,0 H 761.21839 V 485.775 H 660.30472 Z m 102.6012,0 H 812.519 V 485.775 h -49.613 z m 51.30059,0 h 49.6139 V 485.775 h -49.614 z m 0,-1.68753 v -22.00786 h 49.6139 v 22.00786 z M 865.508,440.07093 h 49.61308 v 22.00786 H 865.508 Z m 0,-1.68753 v -22.00827 h 49.61308 v 22.00827 z m 0,-23.6958 v -22.00786 h 49.61308 v 22.00786 z m 0,-23.69539 v -22.00828 h 49.61308 v 22.00828 z m 0,-23.6958 v -22.00828 h 49.61308 v 22.00828 z m 0,-23.6958 v -22.00787 h 49.61308 v 22.00787 z m 0,-23.69539 v -22.00828 h 49.61308 v 22.00828 z m 0,-23.6958 v -22.00828 h 49.61308 v 22.00828 z m 0,-23.6958 v -22.00787 h 49.61308 v 22.00787 z m 0,-23.69539 V 226.81 h 49.61308 v 22.00828 z m -1.68752,0 h -49.614 V 226.81 h 49.6139 z m -51.30142,0 H 762.906 V 226.81 h 49.613 z m -51.3006,0 H 660.30472 V 226.81 h 100.91367 z m -102.60119,0 H 609.00418 V 226.81 h 49.61307 z m -51.3006,0 H 557.7027 V 226.81 h 49.6139 z m -51.30142,0 H 506.40216 V 226.81 h 49.61307 z m 0,1.68752 v 22.00787 h -49.61309 v -22.00787 z m -51.3006,22.00787 h -49.61309 v -22.00787 h 49.61307 z m 0,1.68752 v 22.00828 h -49.61309 v -22.00828 z m 0,23.6958 v 22.00828 h -49.61309 v -22.00828 z m 0,23.6958 v 22.00787 h -49.61309 v -22.00787 z m 0,23.69539 v 22.00828 h -49.61309 v -22.00828 z m 0,23.6958 v 22.00828 h -49.61309 v -22.00828 z m 0,23.69581 v 22.00786 h -49.61309 v -22.00786 z m 0,23.69539 v 22.00827 h -49.61309 v -22.00827 z m 0,23.6958 v 22.00786 h -49.61309 v -22.00786 z m 0,23.69539 V 485.775 h -49.61309 v -22.00868 z m 1.68753,0 h 49.61307 V 485.775 h -49.61309 z m 49.61307,23.69621 v 22.00787 h -49.61309 v -22.00787 z m 1.68752,0 h 49.6139 V 509.4704 H 557.7027 Z m 51.30143,0 h 49.61307 v 22.00787 h -49.61309 z m 51.30059,0 h 100.9136 V 509.4704 H 660.30472 Z m 102.6012,0 H 812.519 v 22.00787 h -49.613 z m 51.30059,0 h 49.6139 v 22.00787 h -49.614 z m 51.30142,0 h 49.61308 V 509.4704 H 865.508 Z m 0,-1.68752 v -22.00869 h 49.61308 V 485.775 Z m 51.3006,-22.00869 h 49.61307 V 485.775 h -49.61309 z m 0,-1.68753 v -22.00786 h 49.61307 v 22.00786 z m 0,-23.69539 v -22.00827 h 49.61307 v 22.00827 z m 0,-23.6958 v -22.00786 h 49.61307 v 22.00786 z m 0,-23.69539 v -22.00828 h 49.61307 v 22.00828 z m 0,-23.6958 v -22.00828 h 49.61307 v 22.00828 z m 0,-23.6958 v -22.00787 h 49.61307 v 22.00787 z m 0,-23.69539 v -22.00828 h 49.61307 v 22.00828 z m 0,-23.6958 v -22.00828 h 49.61307 v 22.00828 z m 0,-23.6958 v -22.00787 h 49.61307 v 22.00787 z M 504.71463,226.81 v 22.00828 H 455.10156 V 226.81 Z m -49.61307,260.65253 h 49.61307 v 22.00787 h -49.61307 z m 461.707,22.00787 v -22.00787 h 49.61307 v 22.00787 z"
       inkscape:connector-curvature="0"
       style="fill:#e6e6e6" />
  </g>
</svg>
